<?xml version="1.0" encoding="UTF-8"?><svg id="Layer_2" xmlns="http://www.w3.org/2000/svg" viewBox="0 0 184.24 92.81"><defs><style>.cls-1{stroke-width:0px;}</style></defs><g id="Layer_1-2"><polygon class="cls-1" points="69.33 74.67 65.67 74.67 65.67 53.33 48 53.33 48 74.67 44.33 74.67 44.33 42.67 26.67 42.67 26.67 92.33 87 92.33 87 0 69.33 0 69.33 74.67"/><polygon class="cls-1" points="49.66 21.33 17.66 21.33 17.66 17.67 60.33 17.67 60.33 0 0 0 0 92.33 17.66 92.33 17.66 39 49.66 39 49.66 21.33"/><polygon class="cls-1" points="103.56 19.75 112.66 19.75 112.66 17.06 103.56 17.06 103.56 4.58 114.74 4.58 114.74 1.9 100.25 1.9 100.25 35.5 103.56 35.5 103.56 19.75"/><rect class="cls-1" x="118.49" y="1.9" width="3.32" height="33.6"/><path class="cls-1" d="m143.53,25.37c0-3.98-1.28-6.24-4.55-6.91v-.1c3.1-.77,4.55-3.02,4.55-6.77v-2.06c0-5.28-2.46-7.63-8.29-7.63h-7.97v33.6h3.32v-15.51h4.07c3.96,0,5.56,1.34,5.56,5.23v6.19c0,2.06.21,3.12.48,4.08h3.37c-.43-1.15-.53-2.59-.53-4.03v-6.1Zm-8.93-8.16h-4.01V4.58h4.55c3.64,0,5.08,1.54,5.08,5.18v2.35c0,3.65-1.82,5.09-5.62,5.09Z"/><polygon class="cls-1" points="148.61 35.5 163.59 35.5 163.59 32.76 151.93 32.76 151.93 19.32 161.5 19.32 161.5 16.63 151.93 16.63 151.93 4.58 163.59 4.58 163.59 1.9 148.61 1.9 148.61 35.5"/><path class="cls-1" d="m175.89,1.9h-8.35v33.6h8.35c5.72,0,8.35-2.64,8.35-8.11V9.96c0-5.42-2.62-8.06-8.35-8.06Zm5.03,25.63c0,3.79-1.6,5.23-5.08,5.23h-4.98V4.58h4.98c3.48,0,5.08,1.49,5.08,5.28v17.67Z"/><polygon class="cls-1" points="122.93 89.59 114.65 66.61 112.21 66.61 104.05 88.5 104.2 58.73 101.34 58.73 101.34 92.33 105.15 92.33 113.54 71.89 121.15 92.33 125.75 92.33 125.75 58.73 123.13 58.73 122.93 89.59"/><path class="cls-1" d="m136.33,58.25c-4.81,0-7.48,2.88-7.48,8.21v18.15c0,5.33,2.67,8.21,7.48,8.21s7.48-2.88,7.48-8.21v-18.15c0-5.33-2.67-8.21-7.48-8.21Zm4.53,26.55c0,3.6-1.62,5.28-4.53,5.28s-4.53-1.68-4.53-5.28v-18.53c0-3.6,1.62-5.33,4.53-5.33s4.53,1.73,4.53,5.33v18.53Z"/><path class="cls-1" d="m155.4,58.25c-4.81,0-7.48,2.88-7.48,8.21v18.15c0,5.33,2.67,8.21,7.48,8.21s7.48-2.88,7.48-8.21v-18.15c0-5.33-2.67-8.21-7.48-8.21Zm4.53,26.55c0,3.6-1.62,5.28-4.53,5.28s-4.53-1.68-4.53-5.28v-18.53c0-3.6,1.62-5.33,4.53-5.33s4.53,1.73,4.53,5.33v18.53Z"/><path class="cls-1" d="m174.8,58.73h-7.44v33.6h7.44c5.1,0,7.44-2.64,7.44-8.11v-17.43c0-5.42-2.34-8.06-7.44-8.06Zm4.48,25.63c0,3.79-1.43,5.23-4.53,5.23h-4.43v-28.18h4.43c3.1,0,4.53,1.49,4.53,5.28v17.67Z"/></g></svg>