<?xml version="1.0" encoding="UTF-8"?><svg id="Layer_2" xmlns="http://www.w3.org/2000/svg" viewBox="0 0 432.15 400.58"><defs><style>.cls-1{fill:#c9b3b0;}.cls-1,.cls-2,.cls-3,.cls-4,.cls-5,.cls-6,.cls-7,.cls-8,.cls-9,.cls-10,.cls-11,.cls-12,.cls-13,.cls-14,.cls-15,.cls-16,.cls-17,.cls-18,.cls-19,.cls-20,.cls-21,.cls-22,.cls-23,.cls-24,.cls-25,.cls-26,.cls-27,.cls-28,.cls-29,.cls-30,.cls-31,.cls-32,.cls-33,.cls-34,.cls-35,.cls-36,.cls-37,.cls-38,.cls-39,.cls-40,.cls-41,.cls-42,.cls-43,.cls-44,.cls-45,.cls-46,.cls-47,.cls-48,.cls-49,.cls-50,.cls-51,.cls-52,.cls-53,.cls-54,.cls-55,.cls-56,.cls-57,.cls-58,.cls-59,.cls-60,.cls-61,.cls-62,.cls-63,.cls-64,.cls-65,.cls-66,.cls-67,.cls-68,.cls-69,.cls-70,.cls-71,.cls-72,.cls-73,.cls-74,.cls-75,.cls-76,.cls-77,.cls-78,.cls-79,.cls-80,.cls-81,.cls-82,.cls-83,.cls-84,.cls-85,.cls-86,.cls-87,.cls-88,.cls-89,.cls-90,.cls-91,.cls-92,.cls-93,.cls-94,.cls-95,.cls-96,.cls-97,.cls-98,.cls-99,.cls-100,.cls-101,.cls-102,.cls-103,.cls-104,.cls-105,.cls-106,.cls-107,.cls-108,.cls-109,.cls-110,.cls-111,.cls-112,.cls-113,.cls-114,.cls-115,.cls-116,.cls-117,.cls-118,.cls-119,.cls-120,.cls-121,.cls-122,.cls-123,.cls-124,.cls-125,.cls-126,.cls-127,.cls-128,.cls-129,.cls-130,.cls-131,.cls-132,.cls-133{stroke-width:0px;}.cls-2{fill:#c0604c;}.cls-3{fill:#f8cfb3;}.cls-4{fill:url(#linear-gradient-12);}.cls-5{fill:#c29a94;}.cls-6{fill:#bd3f3d;}.cls-7{fill:url(#linear-gradient);}.cls-8{fill:#36322c;}.cls-9{fill:#487a78;}.cls-10{fill:#642928;}.cls-11{fill:#afa59c;}.cls-12{fill:#f9b1ae;}.cls-13{fill:#307d71;}.cls-14{fill:#c0ab88;}.cls-15{fill:#e87f94;}.cls-16{fill:url(#linear-gradient-6);}.cls-17{fill:#d6d1c6;}.cls-18{fill:#d3bc86;}.cls-19{fill:#221f16;}.cls-20{fill:#599890;}.cls-21{fill:#9d6a3c;}.cls-22{fill:#f0f1ee;}.cls-23{fill:#7e1714;}.cls-24{fill:#746849;}.cls-25{fill:#9f8c8b;}.cls-26{fill:#902928;}.cls-27{fill:#a92c2f;}.cls-28{fill:#508a88;}.cls-29{fill:#babbcb;}.cls-30{fill:#dcb69d;}.cls-31{fill:#c6d8dd;}.cls-32{fill:#a97673;}.cls-33{fill:#743c23;}.cls-34{fill:#a77b84;}.cls-35{fill:url(#linear-gradient-11);}.cls-36{fill:#597571;}.cls-37{fill:url(#linear-gradient-5);}.cls-38{fill:#5f4232;}.cls-39{fill:#dae6f5;}.cls-40{fill:#f9ebe6;}.cls-41{fill:#361610;}.cls-42{fill:#907947;}.cls-43{fill:#cce8e2;}.cls-44{fill:#8a7572;}.cls-45{fill:#7a553f;}.cls-46{fill:#d6eff3;}.cls-47{fill:#c3965e;}.cls-48{fill:#cbd4be;}.cls-49{fill:#b0b4b3;}.cls-50{fill:#5e3324;}.cls-51{fill:url(#linear-gradient-13);}.cls-52{fill:#eb6a6a;}.cls-53{fill:#d7c6be;}.cls-54{fill:#dddede;}.cls-55{fill:#db5b53;}.cls-56{fill:#1c3f43;}.cls-57{fill:#405e5d;}.cls-58{fill:#282c2c;}.cls-59{fill:#94363d;}.cls-60{fill:#cf7181;}.cls-61{fill:#ddd0ef;}.cls-62{fill:#8bc5c2;}.cls-63{fill:#ae8e83;}.cls-64{fill:#281a15;}.cls-65{fill:url(#linear-gradient-2);}.cls-66{fill:#cec3a2;}.cls-67{fill:#ce535e;}.cls-68{fill:#ce4b44;}.cls-69{fill:#162a29;}.cls-70{fill:#beb274;}.cls-71{fill:url(#linear-gradient-7);}.cls-72{fill:#f4dec4;}.cls-73{fill:#f6cfc7;}.cls-74{fill:#3f3326;}.cls-75{fill:#82684d;}.cls-76{fill:url(#linear-gradient-3);}.cls-77{fill:#b3c8c0;}.cls-78{fill:#986769;}.cls-79{fill:#7c4744;}.cls-80{fill:url(#linear-gradient-9);}.cls-81{fill:#f59f86;}.cls-82{fill:#352a21;}.cls-83{fill:#556766;}.cls-84{fill:#a8a3a9;}.cls-85{fill:#ba8484;}.cls-86{fill:#344544;}.cls-87{fill:#c79582;}.cls-88{fill:#544d38;}.cls-89{fill:#c5826e;}.cls-90{fill:#2d231a;}.cls-91{fill:#492018;}.cls-92{fill:#e8dadb;}.cls-93{fill:#898e88;}.cls-94{fill:#aadbd5;}.cls-95{fill:url(#linear-gradient-8);}.cls-96{fill:#6d8783;}.cls-97{fill:#56110d;}.cls-98{fill:#b5c7dd;}.cls-99{fill:#f3edbf;}.cls-100{fill:#d1d4d3;}.cls-101{fill:#c77263;}.cls-102{fill:#b09167;}.cls-103{fill:#f39898;}.cls-104{fill:#894c2e;}.cls-105{fill:#f08476;}.cls-106{fill:#474832;}.cls-107{fill:#551f15;}.cls-108{fill:#9b9f9e;}.cls-109{fill:#edb0a3;}.cls-110{fill:#b19b92;}.cls-111{fill:#ab684e;}.cls-112{fill:#b86963;}.cls-113{fill:#c74d67;}.cls-114{fill:#c1aeb6;}.cls-115{fill:#e1eede;}.cls-116{fill:#d5a4a7;}.cls-117{fill:#1b120f;}.cls-118{fill:#cfc2cb;}.cls-119{fill:#d5ae73;}.cls-120{fill:url(#linear-gradient-10);}.cls-121{fill:#e8cfa9;}.cls-122{fill:#ebdc9c;}.cls-123{fill:#f5e5d8;}.cls-124{fill:#2c4f50;}.cls-125{fill:url(#linear-gradient-4);}.cls-126{fill:#bf4046;}.cls-127{fill:#5f3e3c;}.cls-128{fill:#9e9f92;}.cls-129{fill:#fb947e;}.cls-130{fill:#ef7973;}.cls-131{fill:#b2c4cd;}.cls-132{fill:#b07d56;}.cls-133{fill:#c5c8bc;}</style><linearGradient id="linear-gradient" x1="52.44" y1="34.6" x2="63.66" y2="42.12" gradientUnits="userSpaceOnUse"><stop offset="0" stop-color="#7f4224"/><stop offset="1" stop-color="#ae6c39"/></linearGradient><linearGradient id="linear-gradient-2" x1="224.19" y1="33.38" x2="216.11" y2="40.84" gradientUnits="userSpaceOnUse"><stop offset="0" stop-color="#94532b"/><stop offset="1" stop-color="#b9834a"/></linearGradient><linearGradient id="linear-gradient-3" x1="237.5" y1="157.31" x2="285.14" y2="271.25" gradientUnits="userSpaceOnUse"><stop offset=".37" stop-color="#692829"/><stop offset="1" stop-color="#311714"/></linearGradient><linearGradient id="linear-gradient-4" x1="96.63" y1="98.61" x2="74.92" y2="126.69" gradientUnits="userSpaceOnUse"><stop offset="0" stop-color="#d8c396"/><stop offset="1" stop-color="#f3eec5"/></linearGradient><linearGradient id="linear-gradient-5" x1="81.38" y1="92.11" x2="60.39" y2="96.78" gradientUnits="userSpaceOnUse"><stop offset="0" stop-color="#771d23"/><stop offset="1" stop-color="#b84349"/></linearGradient><linearGradient id="linear-gradient-6" x1="75.5" y1="220.65" x2="55.08" y2="222.43" gradientUnits="userSpaceOnUse"><stop offset="0" stop-color="#927c56"/><stop offset="1" stop-color="#cead81"/></linearGradient><linearGradient id="linear-gradient-7" x1="79.8" y1="264.61" x2="134.26" y2="266.71" gradientUnits="userSpaceOnUse"><stop offset="0" stop-color="#bc3b3f"/><stop offset="1" stop-color="#902a31"/></linearGradient><linearGradient id="linear-gradient-8" x1="112.06" y1="120.69" x2="106.03" y2="139.76" gradientUnits="userSpaceOnUse"><stop offset="0" stop-color="#f2bab7"/><stop offset="1" stop-color="#f4e2d5"/></linearGradient><linearGradient id="linear-gradient-9" x1="145.44" y1="111.45" x2="152.52" y2="131.22" gradientUnits="userSpaceOnUse"><stop offset="0" stop-color="#e5878e"/><stop offset="1" stop-color="#f4bfbb"/></linearGradient><linearGradient id="linear-gradient-10" x1="345.28" y1="242.4" x2="323.67" y2="287.48" gradientUnits="userSpaceOnUse"><stop offset="0" stop-color="#324446"/><stop offset="1" stop-color="#40625e"/></linearGradient><linearGradient id="linear-gradient-11" x1="347.84" y1="282.55" x2="381.55" y2="358.4" gradientUnits="userSpaceOnUse"><stop offset="0" stop-color="#712323"/><stop offset="1" stop-color="#4c1916"/></linearGradient><linearGradient id="linear-gradient-12" x1="365.63" y1="162.3" x2="377.49" y2="164.17" gradientUnits="userSpaceOnUse"><stop offset="0" stop-color="#be342c"/><stop offset="1" stop-color="#972624"/></linearGradient><linearGradient id="linear-gradient-13" x1="357.26" y1="158.18" x2="346.34" y2="159.51" gradientUnits="userSpaceOnUse"><stop offset="0" stop-color="#f29c8e"/><stop offset="1" stop-color="#ed7c70"/></linearGradient></defs><g id="Layer_1-2"><path class="cls-99" d="m223.7,25.55c-4.86-1.57-7.11-1.08-12,0-18.46,4.09-27.54,25.08-39.5,37.5-3.35,3.48-7.16,6.57-11,9.5-2.07-2.59-2.35,5.93-7-3.5,1.09-2.23,2.21-4.38,3.5-6.5.28-.46,1.64-1.41,2-2,1.44-2.38,2.63-5.07,4-7.5,1.57-2.79,2.93-5.82,4.5-8.5,3.03-5.18,4.7-10.11,9.5-15.5,1.05-1.18,3.97-4.2,5-5,16.43-12.81,41.16-1.82,42,.25.08.21-1.39.09-1,1.25Z"/><path class="cls-7" d="m73.7,29.55c-.9.41-3.48.34-3.5,2-4.15-1.08-4.61,9.81-4,12.75.81,3.95,7.22,7.26,8,9.25,1.68,4.3-.82,2.52-3.5,2-2.58-.5-11.02-4.36-9.5,0-1.46-.58-8.89-3.96-9.5-2.75,1.24.28,1.44,1.17,2,1.75-7.19-3.67-8.69-8.48-8.5-16,0-.17-.01-.33,0-.5,3.34-14.56,17.35-12.85,28.5-8.5Z"/><path class="cls-99" d="m100.7,29.55c-5.62-.43-21.11-5.21-16.5,5-.09-.05.75.93-2-.5-2.81-1.46-5.54-3.35-8.5-4.5-11.15-4.35-25.16-6.06-28.5,8.5.12-1.73-.63-3,1.5-6.75,5.01-8.8,23.67-12.65,33.25-12.25,6.67-12,18.42-17.65,32-17-.23,5.9.45.91,1.25.25,1.1-.92,8.7,1.7,6.25,4.75-12.18-3.53-28.02,1.56-34,13,4.03,1.25,11.59,4.72,14.5,7.5,1.19,1.14.66,1.9.75,2Z"/><path class="cls-65" d="m223.7,25.55c4.69,1.51,7.83,5.3,8.5,10,.98,6.83-2.63,11.74-7.25,16.5-1.24-.19-7.83,3.32-9.75,4.5-.16-3.03-6.87.44-8.5,2l-1.5-1c1.62-.98,4.55-2.03,2.5-3,4.88-2.38,5.26-1.73,1-7,6.21-6.05,7.51-13.25-1-17.5,5.19-3.1,6.47-1.92,4-4.5,4.89-1.08,7.14-1.57,12,0Z"/><path class="cls-88" d="m100.7,29.55c4.31,4.51,8.34,9.96,12,15,2.59,3.56,5.46,8.22,8,12,.8,1.19,1.74,2.35,2.5,3.5,1.44,2.18,2.6,4.77,4,7-1.93-1.76-14.28-10.4-19.5-14.5-6.53-5.13-12.6-10.99-19.25-16-1.34-.7-2.96-1.27-4.25-2-4.61-10.21,10.88-5.43,16.5-5Z"/><path class="cls-41" d="m280.7,91.55c-9.52,6.79-42.6,20.58-44.75,22-2.46,1.63-1.66,2.38-1.75,2.5-.41-.01-.53-.36-1-.5-2.41-.71-3.19,2.1-5.5,2,0-.45.02-1.72,0-2-.43-6.5.42-1.79-5-5v-.5q7.37-4.25,14.75-8.5c3.32-1.89,5.28-1.85,5.75-2,1.96-.6,8.91-1.44,10.75-2,4.7-1.43,8.65-3.54,10-4,1.05-.36.62,1.46,6.75-2,.89-.51,3.65-.37,3.5-2,2.12-.13,3.87-1.32,6-1.5.53-.05.74-.69,1-.5.33,2.03-.51,3.25-.5,4Z"/><path class="cls-18" d="m219.7,64.55c4.43.88,9.25,2.37,13.5,4.5-3.45,1.14-10.71,3.14-11.5,5-8.67-.08-23.1,2.22-32.5,3-3.21.27-8.26,1.26-10.25,0,9.55-4.15,19.63-7.38,28.75-12.5.97-.54,2.05-.92,3-1.5,2.57,1,6.58,1.02,9,1.5Z"/><path class="cls-113" d="m221.7,74.05c5.67.05,11.65,1.13,17.25,2,2.48-.06,3.62-1.15,4.75-1.5,3.14,2.07,7.04,2.38,10.5,3.5-.06,6.11,9.95,4.76,12,8.5-4.81-1.24-4.93-3.4-8,0-.61-1.11-1.18-3.88-2.25-4.5-2.42-1.41-31.01-2.77-37-4.5-9.88.61-19.88.38-29.75,1v-1.5c9.4-.78,23.83-3.08,32.5-3Z"/><path class="cls-8" d="m80.2,324.04c2.5,3.39,45.3,25.68,52,32.5,1.45,1.1,3.26,2,5,2.5-2.07,2.22-3.29-.96-4,.5-3.1-1.46-5.99-3.36-9-5-8.51-4.65-17.04-9.7-25.5-14.5-3.16-1.79-6.36-3.66-9.5-5.5-3.59-2.1-7.48-3.76-11-6,2.78-2.82-.87-5.6,2-4.5Z"/><path class="cls-18" d="m45.2,38.55c-.19,7.52,1.31,12.33,8.5,16,2.91,3.04,24.04,14.21,29.75,16.5v1c-1.41-.29-2.5.3-3.75.5-1.32.21-3.15.4-4.5.5-2.48-3.46-5.81-4.29-9.5-5-2.12-4.39-13.31-8.25-18-15.25-2.73-4.08-5.53-13.13-2.5-14.25Z"/><path class="cls-8" d="m48.7,305.04l.5,2.25c.3.61,1.9,1.14,2.5,1.75,2.54,2.61,3.33,2.36,3.5,2.5.38.3,1.47,1.52,3.5,3,5.23,3.81,11.06,6.98,16.5,10.5.14,1.19.56,1.12,1,2l-8.25-4.5c-12.6-9.68-26.33-17.8-39.25-27-3.66-2.61-6.46-6.36-10.5-8.5v-.5c10.15,6.18,20.73,11.67,30.5,18.5Z"/><path class="cls-103" d="m43.7,74.55c-3.73,1.57-4.55,1.72-3.5,6-8.46.94-16.83,2.77-25,5.25l.25.75c6.22-1.99,13.02-.59,19.5-1,.44.12.19.96.25,1-10.24,1.29-20.83-.17-31,2,11.96-6.85,26.58-8.15,39-14.5l.5.5Z"/><path class="cls-47" d="m226.7,54.05c-2.53-3.69-9,4.74-16,9-.95.58-2.03.96-3,1.5l-4-.5c.06-.03.97-.77,1-1,4.03-1.29,6.98-4.34,10.5-6.5,1.92-1.18,8.51-4.69,9.75-4.5,4.62-4.76,8.23-9.66,7.25-16.5,4.56,7.23-.59,13.39-5.5,18.5Z"/><path class="cls-99" d="m258.2,67.05c-3.58,2.15-8.56,2.6-9.5,5.5-1.48-.93-4.74,1.92-5,2-1.13.35-2.27,1.44-4.75,1.5-5.6-.87-11.58-1.95-17.25-2,.79-1.86,8.05-3.86,11.5-5,4.1-1.35,31.64-11.17,33.25-10.5,3.04,1.27-6.81,7.63-8.25,8.5Z"/><path class="cls-99" d="m248.7,72.55c.94-2.9,5.92-3.35,9.5-5.5,18.85,13.11,10.63,8.79-9.5,5.5Z"/><path class="cls-60" d="m280.2,88.05c-2.13.18-3.88,1.37-6,1.5.39-1.17-4.31-2.05-8-3-2.05-3.74-12.06-2.39-12-8.5,3.36,1.09,24.55,8.35,25.75,9,.41.22.25.65.25,1Z"/><path class="cls-119" d="m226.7,54.05c-6.71,6.98-14.28,9.32-7,10.5-2.42-.48-6.43-.5-9-1.5,7-4.26,13.47-12.69,16-9Z"/><path class="cls-99" d="m179.7,13.55c.98,3.4-1.4,3.88-1.5,4.25-.21.74,1.04,1.33,1,1.5-.22.96-1.42,1.3-1.5,1.75-8.54-18.4-22.82-15.87-24.25-16.5-.84-.37-.96-2.06-.75-2.75,1.31-4.27,20.07-1.16,27,11.75Z"/><path class="cls-14" d="m182.7,24.05c-1.03.8-3.95,3.82-5,5-.17-2.7-.47-5.29,0-8,.08-.45,1.28-.79,1.5-1.75.04-.17-1.21-.76-1-1.5.1-.37,2.48-.85,1.5-4.25,2.1,3.92,2.34,6.09,3,10.5Z"/><path class="cls-99" d="m65.7,68.05c3.69.71,7.02,1.54,9.5,5-9.85.75-21.11-1.73-30.5,1.5-.25.09-.79-.09-1,0l-.5-.5c3.25-.85-6.65-1.76-11.25-3.5-.68-.26-.55-1.23-1.25-1.5-1.13-.44-3.21-1.43-4.5-2,1.94-.89,4.71,1.72,3.5-3.5,11.77,1.83,29.65,3.28,36,4.5Z"/><path class="cls-99" d="m29.7,63.55c1.21,5.22-1.56,2.61-3.5,3.5-.24-.11-2.38-.27-5-1.5-1.73-.81-5.46-1.29-3.75-4.5,4.14.41,8.18,1.87,12.25,2.5Z"/><path class="cls-93" d="m26.2,67.05c1.29.57,3.37,1.56,4.5,2l-10.25-2.5.75-1c2.62,1.23,4.76,1.39,5,1.5Z"/><path class="cls-117" d="m192.7,325.04c-.04.32.02.67,0,1l-.25,1.5c-8.25,4.64-17.19,8.25-24.75,14-10.14,5.49-20.06,11.53-29.25,18.5-.44-.36.02-.85-.75-1,4.44-6.19,46.14-30.84,51.75-33.5,1.05-.5,2.1-.6,3.25-.5Z"/><path class="cls-76" d="m275.7,139.55c-.12,3.16.13,6.34,0,9.5-1.78,43.08-4.69,86.12-5.5,129.25-.55,1.21-1.09,2.26-2,3.25-.14.15-1.96.91-3.5,2-1.1.78-2.66.95-3.5,2.25,2.39,3.36-.3.1-1.75.25-.27.03-1.17.83-4.75,2.5-4.54,2.12-8.91,6.73-13.25,6-2.26,1.57-14.33,9.79-15.25,10,.35-2.11-.08-8.42,0-12,.06-2.66-.04-5.34,0-8,.55-42.14.79-84.35,1-126.5,6.15-1.48,45.69-20.88,47.25-23,2.1-2.84-2.28-4.51,6.75-6.75.46-12.25-.39-24.52-.5-36.75,0-.75.83-1.97.5-4l.5,41.25c-8.21,2.59-5.68,2.23-6,10.75Z"/><path class="cls-43" d="m235.95,218.05c2.65.28,1.94,5.98-1.5,3.5-.92-.66.18-3.64,1.5-3.5Z"/><path class="cls-127" d="m229.45,286.04c1.26.02,1.91,4.24.5,4.5-2.1.39-2.63-4.53-.5-4.5Z"/><path class="cls-115" d="m249.45,167.55c.69,0,2.09,2.49.5,3-1.63.52-2.16-3.02-.5-3Z"/><path class="cls-77" d="m252.95,196.55c1.42-.46,2.1,2.45.5,2.5-1.54.05-1.63-2.14-.5-2.5Z"/><path class="cls-49" d="m235.95,277.04c2.29-.11,1.57,2.3.5,2.5-1.47.27-1.22-2.46-.5-2.5Z"/><path class="cls-43" d="m253.45,156.05c.55,0,1.99,2.07.5,2.5-2.08.6-1.65-2.51-.5-2.5Z"/><path class="cls-77" d="m255.45,184.55c1.59-.49,2.37,1.57,1,2-1.59.49-2.37-1.57-1-2Z"/><path class="cls-43" d="m242.95,251.54c1.32-.32,1.74,2.19.5,2.5-1.32.32-1.74-2.19-.5-2.5Z"/><path class="cls-77" d="m245.45,233.04c1.59-.49,2.37,1.57,1,2-1.59.49-2.37-1.57-1-2Z"/><path class="cls-77" d="m241.95,240.54c1.92-.44,1.37,1.78.5,2-1.19.3-1.69-1.73-.5-2Z"/><path class="cls-11" d="m256.45,241.04c1-.21,1.76,1.48,1,2-1.15.8-2.58-1.67-1-2Z"/><path class="cls-100" d="m249.95,245.54c1-.21,1.76,1.48,1,2-1.15.8-2.58-1.67-1-2Z"/><path class="cls-11" d="m267.95,196.05c1.23-.27,1.67,1.74.5,2-1.23.27-1.67-1.74-.5-2Z"/><path class="cls-63" d="m261.45,258.54c2.06-.34,1.23,1.87.5,2-.99.18-1.49-1.84-.5-2Z"/><path class="cls-128" d="m240.45,170.55c1.23-.27,1.67,1.74.5,2-1.23.27-1.67-1.74-.5-2Z"/><path class="cls-11" d="m259.45,204.55c1.23-.27,1.67,1.74.5,2-1.23.27-1.67-1.74-.5-2Z"/><path class="cls-49" d="m238.45,202.55c1.23-.27,1.67,1.74.5,2-1.23.27-1.67-1.74-.5-2Z"/><path class="cls-133" d="m261.45,223.05c.96-.67,1.75,2.05.5,2-1.17-.05-.91-1.71-.5-2Z"/><path class="cls-11" d="m262.45,170.55c1.81-.35.75,2.03,0,2-.75-.03-1.02-1.8,0-2Z"/><path class="cls-92" d="m254.45,276.04c1.16-.05.58,2.6-.5,2-.7-.39.02-1.98.5-2Z"/><path class="cls-123" d="m249.95,279.54c.29,0,1.3,1.12.25,1.75-1.08.64-1.23-1.75-.25-1.75Z"/><path class="cls-81" d="m149.2,69.05c1.35.21,2.78,1.28,4-.25.49-1.53,1.36-5.49,1.5-5.75.85-1.6,2.61-3.23,3-.5-1.29,2.12-2.41,4.27-3.5,6.5-.66,1.35-1.49,2.54-2,4-1.37-3.13-9.19-3.24-12.5-3-1.85-3.4-.72-4.51-1-6.75-.24-1.99-2.06-11.39-2-12,.52-5.71,14.59,1.89,14.5,4-3.47,9.52-7.8,12.85-2,13.75Z"/><path class="cls-111" d="m211.7,25.55c2.47,2.58,1.19,1.4-4,4.5-10.12,6.04-18.32,14.1-26,23-2.02,2.34-7.01,8.8-9,11.5-2.19.05.68-1.14-.5-1.5,11.96-12.42,21.04-33.41,39.5-37.5Z"/><path class="cls-107" d="m172.7,64.55c-1.08,1.46-4.72,6-5,7-.45,1.62.5,1.42,2,2-3.12,1.26-8.43,2.94-9.5,3.5-3.81-1.13-4.91.94-5.75,1-.36-.25-.76-1.05-1.25-1,1.22-1.35,4.5-1.83,8-4.5,3.84-2.93,7.65-6.02,11-9.5,1.18.36-1.69,1.55.5,1.5Z"/><path class="cls-18" d="m161.2,72.55c-3.5,2.67-6.78,3.15-8,4.5-.16.02-.34-.02-.5,0-.37-.91-.33-3.62-.5-4,.51-1.46,1.34-2.65,2-4,4.65,9.42,4.93.91,7,3.5Z"/><path class="cls-99" d="m139.7,70.05c3.31-.25,11.13-.13,12.5,3,.17.38.13,3.09.5,4-1.73.18-12.62,1.77-13.25,2-2.37.88-3.83,6.48-6.25,2-.24-.44-.81-4.48-1-6,.75-.63.94-.96,1-1,.93-.73,2.03-2.79,4-3.5,1.15-.41,1.27-.41,2.5-.5Z"/><path class="cls-3" d="m131.2,60.55c1.42,2.47,2.56,2.97,4.5,6.5,0,3.44-7.67-7.25-7.5.5-.08-.08-.9-.41-1-.5-1.4-2.23-2.56-4.82-4-7,2.14-1.17,5.8-.39,8,.5Z"/><path class="cls-52" d="m135.7,67.05c.09.17,1.88.93,1.5,3.5-1.97.71-3.07,2.77-4,3.5-2.32-1.22-3.47-5.02-5-6.5-.17-7.75,7.51,2.94,7.5-.5Z"/><path class="cls-72" d="m154.7,63.05c-.14.26-1.01,4.22-1.5,5.75-1.22,1.53-2.65.46-4,.25.72-2.12,4.03-7.86,5.5-6Z"/><path class="cls-125" d="m141.2,92.55c-14.66,6.5-30.16,11.39-44.75,18-8.78,3.98-17.65,9.74-21.75,11.5-.85.36-1.49,1.66-3.75,2-20.79-2.48-14.79-6.01-16.5-7.5-.2-.18-4.73-.78-5.25-1-1.18-.51-2.75-1.4-4-2,3.24-1.28,6.02-3.31,9-5,.2-.11,1.02-.46,2-1,1.91-1.05,13.01-6.79,13.75-7,.81-.23,1.18,1.23,2,1,11.11-3.13,22.35-6.59,33.75-8.5,5.84-.98,11.59-1.67,17.5-2,2.93-.16,16.34-1.21,17.75,0,.52.44.08,1.22.25,1.5Z"/><path class="cls-22" d="m40.2,80.55c.49-.05,1.01.05,1.5,0-.87,2.23-1.56,4.02-3,6-.32.44-.74,1.2-1.5,1-.08-.08-1.57-.77-2-1-.06-.03.19-.88-.25-1-6.48.41-13.28-.99-19.5,1l-.25-.75c8.17-2.48,16.54-4.31,25-5.25Z"/><path class="cls-18" d="m89.7,61.05c4.82,2.37,9.61,4.32,14.5,6.5,2.66,1.19,12.75,4.32,8,5.5-.82-.07-1.69.1-2.5,0-1.37-.17-2.6-.4-4-.5l-22.25-6.5c-3.14-2.38-7.59-3.97-11.25-5.5,5.58-.2-1.12-2.09-1.5-5,2.68.52,5.18,2.3,3.5-2,2.85-.24,9.5,4.54,15.5,7.5Z"/><path class="cls-21" d="m61.2,55.55c3.75,1.49,7.28,3.45,11,5,3.66,1.53,8.11,3.12,11.25,5.5l22.25,6.5c-1.04-.07-1.81.56-3.75.5-.59-.02-11.16-3.55-8.25,2-3.74-.86-10.11-4.4-12.5-1.5-.49-.05-1,.03-1.5,0v-1c1.25-.2,2.34-.79,3.75-.5v-1c-5.71-2.29-26.84-13.46-29.75-16.5-.56-.58-.76-1.47-2-1.75.61-1.21,8.04,2.17,9.5,2.75Z"/><path class="cls-18" d="m70.7,55.55c.38,2.91,7.08,4.8,1.5,5-3.72-1.55-7.25-3.51-11-5-1.52-4.36,6.92-.5,9.5,0Z"/><path class="cls-132" d="m73.7,29.55c2.96,1.15,5.69,3.04,8.5,4.5l-1,3c-1.43-.79-10.4-5.34-11-5.5.02-1.66,2.6-1.59,3.5-2Z"/><path class="cls-102" d="m84.2,34.55c1.29.73,2.91,1.3,4.25,2,6.65,5.01,12.72,10.86,19.25,16-.65,2.87,4.86,5.71,2.5,7.5-.43-.49-1.7-3.23-3-2.5-1.1-1.19-2.79-2.82-4-4-6.36-6.19-14.21-12.22-22-16.5l1-3c2.75,1.43,1.91.45,2,.5Z"/><path class="cls-122" d="m207.7,54.55c-2.44,1.19-5.03,2.4-7.5,3.5-7,3.13-14.45,5.52-21.5,8.5,5.11-3.87,11.04-6.12,16.5-9.5,4.46-2.76,9.75-5.84,13.5-9.5,4.26,5.27,3.88,4.62-1,7Z"/><path class="cls-14" d="m206.7,58.55c-.15.15.17,1.55,0,1.75-1.66,2.02-4.1.38-2,2.75-.03.23-.94.97-1,1-1.39.71-4.13,1.68-6,2.5-2.57-1.69-5.53,2.56-5.5-2,2.92-1.39,5.66-3.44,8.5-5,1.38-.76,3.09-1.15,4.5-2l1.5,1Z"/><path class="cls-18" d="m215.2,56.55c-3.52,2.16-6.47,5.21-10.5,6.5-2.1-2.37.34-.73,2-2.75.17-.2-.15-1.6,0-1.75,1.63-1.56,8.34-5.03,8.5-2Z"/><path class="cls-42" d="m205.2,57.55c-1.41.85-3.12,1.24-4.5,2l-.5-1.5c2.47-1.1,5.06-2.31,7.5-3.5,2.05.97-.88,2.02-2.5,3Z"/><path class="cls-18" d="m127.2,67.05c.1.09.92.42,1,.5,1.53,1.48,2.68,5.28,5,6.5-.06.04-.25.37-1,1-1.15.96-2.26,1.88-3.25,3-.85-.84-2.38-1.44-3.25-2-3.89-2.48-6.54-7.11-10.5-9.5-.06-.14.07-.37,0-.5-1.16-2.16-3.34-4.11-5-6,2.36-1.79-3.15-4.63-2.5-7.5,5.22,4.1,17.57,12.74,19.5,14.5Z"/><path class="cls-99" d="m175.2,92.55c.16.02.34-.02.5,0,10.53,2.87,20.35,7.62,30.5,11.5.83.32,1.64.68,2.5,1,4.64,1.72,9.06,4.12,14,5v.5c-2.06.72-3.78,2.4-4,2.5-5.13,2.26-18.34,9.75-19.5,10-.49.11-.6.63-1.75.5-1.17-.74-2.47-1.48-3.75-2-8.28-3.39-18.49-10.22-30-15-7.16-4.43-15.22-7.17-22.5-11.25.59-.81,1.03-.69,1-.75,15.52-7.96,24.33-3.08,33-2Z"/><path class="cls-10" d="m254.2,87.55c.15.01.61.32,3,.5,5.73.44,11.17,1.87,17,1.5.15,1.63-2.61,1.49-3.5,2q-5.62-1-11.25-2c-.67,2.25-5.66,2.72-8.75,3.5-1.83.08-3.31-.48-3,1-2.5.69-13.78,2.53-10.75,3.5,1.11.35,5.24-.61,5.25,1.5-12.31-3.57-13.93-.66-18.5,2.5-1.48-2.73-23.39.96-17.5,2.5-10.15-3.88-19.97-8.63-30.5-11.5.06,0,.43-1.04.75-1,.23.03.77.97,1,1,1.36.19,3.45-.64,4.5-.5.4.05.1.95.5,1,3.3.44,6.56.63,9.5,2.5,7.87-.84,16.16.79,24,0,3.69-.37,16.92-4.28,20-6,1.33-.75,1.03-2.54,4.75-3,.17,0,.33-.01.5,0,4.33.26,8.67.67,13,1Z"/><path class="cls-60" d="m242.2,99.05c.36.11,1.03-.26,1,.5-.47.15-2.43.11-5.75,2q-7.37,4.25-14.75,8.5c-4.94-.88-9.36-3.28-14-5,2.56-.9,5.23,2.59,8.25,2,.75-.14,3.94-3.56,6.75-5.5,4.57-3.16,6.18-6.07,18.5-2.5Z"/><path class="cls-79" d="m270.7,91.55c-6.13,3.46-5.7,1.64-6.75,2-1.35.46-5.3,2.57-10,4-1.84.56-8.79,1.4-10.75,2,.03-.76-.64-.39-1-.5,0-2.11-4.14-1.15-5.25-1.5-3.03-.97,8.25-2.81,10.75-3.5,3.14-.86,2.85-.96,3-1,3.09-.78,8.08-1.25,8.75-3.5q5.62,1,11.25,2Z"/><path class="cls-74" d="m227.7,115.55l-3.5.5c-.7-2.59-3.2-2.82-5.5-3,.22-.1,1.94-1.78,4-2.5,5.42,3.21,4.57-1.5,5,5Z"/><path class="cls-21" d="m203.7,64.05l4,.5c-9.12,5.12-19.19,8.35-28.75,12.5,1.99,1.26,7.04.27,10.25,0v1.5c-2.7.17-5.28.27-8,.5-3.36.28-6.66.5-10,1-1.23-1.81-5.09.14-5.75,0-3.89-.86,5.79-2.03,10-3.5,2.21-.77,11.06-4.43,12.25-6,3.43-1.11,6.71-2.56,10-4,1.87-.82,4.61-1.79,6-2.5Z"/><path class="cls-113" d="m75.2,73.05c1.35-.1,3.18-.29,4.5-.5v1c-1.83-.12-7.56-.21-8.75,0-.42.08-.2.99-.25,1-2.66.67-12.42,4.01-7.5,6.5l-7.5-1c.52-1.23,15.36-7.46,7.25-6-.84.15-7.49,4.25-10,5l-8.25-4.5c9.39-3.23,20.65-.75,30.5-1.5Z"/><path class="cls-15" d="m55.7,80.05c-5.29-1.35-9.27.05-14,.5-.49.05-1.01-.05-1.5,0-1.05-4.28-.23-4.43,3.5-6,.21-.09.75.09,1,0l8.25,4.5c2.51-.75,9.16-4.85,10-5,8.11-1.46-6.73,4.77-7.25,6Z"/><path class="cls-18" d="m258.2,86.55c-.06.07.36.58-1,1.5-2.39-.18-2.85-.49-3-.5q-3.87-2.25-7.75-4.5c-13.79.34-39.55,1.25-7,2l1.75,1.5c-.17-.01-.33,0-.5,0-8.67-.52-17.32-1.14-26-1.5-10.64-.44-21.35-.35-32-.5.46-1.19,6.43-.77,6.75-1,.5-.36-.1-4.1-.25-4.25-.93-.89-6.42,1.37-8-.25,2.72-.23,5.3-.33,8-.5,9.87-.62,19.87-.39,29.75-1,5.99,1.73,34.58,3.09,37,4.5,1.07.62,1.64,3.39,2.25,4.5Z"/><path class="cls-66" d="m266.2,86.55c3.69.95,8.39,1.83,8,3-5.83.37-11.27-1.06-17-1.5,1.36-.92.94-1.43,1-1.5,3.07-3.4,3.19-1.24,8,0Z"/><path class="cls-10" d="m280.7,91.55c.11,12.23.96,24.5.5,36.75-9.03,2.24-4.65,3.91-6.75,6.75-1.56,2.12-41.1,21.52-47.25,23,.07-13.5.48-27.01.5-40.5,2.31.1,3.09-2.71,5.5-2-1.91,1.29-.64,2.62,1,.5.09-.12-.71-.87,1.75-2.5,2.15-1.42,35.23-15.21,44.75-22Z"/><path class="cls-34" d="m234.2,116.05c-1.64,2.12-2.91.79-1-.5.47.14.59.49,1,.5Z"/><path class="cls-73" d="m229.45,121.05c4.2.59-3.62,9.04-1.25,1.25.03-.08,1.16-1.26,1.25-1.25Z"/><path class="cls-131" d="m236.45,140.55c.12-.06,2.26.67,2.25,1.25-.03,3.14-5.72.4-2.25-1.25Z"/><path class="cls-63" d="m241.95,130.55c1.81-.35.75,2.03,0,2-.75-.03-1.02-1.8,0-2Z"/><path class="cls-22" d="m250.45,138.55c.71.14,1.63,1.55.5,2-1.69.67-1.03-2.1-.5-2Z"/><path class="cls-63" d="m268.95,108.05c1.16-.68,1.24,1.98.5,2-.44,0-1.22-1.58-.5-2Z"/><path class="cls-1" d="m265.95,129.55c1.55-.79,1.43,1.46.5,1.5-1.1.05-.95-1.27-.5-1.5Z"/><path class="cls-32" d="m250.45,128.55c.25,0,1.22,1.18.5,1.5-1.66.73-1.35-1.47-.5-1.5Z"/><path class="cls-32" d="m260.45,119.55c.18,0,1.1.72.25,1.25-.95.6-1.11-1.25-.25-1.25Z"/><path class="cls-90" d="m218.7,113.05c2.3.18,4.8.41,5.5,3,.04.15-.03.34,0,.5-5.93,1.8-5.2,2.86-5.5,3-5.04,2.38-9.97,4.48-15,7-2.11,1.06-4.38,1.9-6.5,3-.23-3.59-.23-3.96,2-6.5,1.16-.25,14.37-7.74,19.5-10Z"/><path class="cls-103" d="m195.2,57.05c-5.46,3.38-11.39,5.63-16.5,9.5-3.61,1.53-7.04,4.09-11,5,.28-1,3.92-5.54,5-7,1.99-2.7,6.98-9.16,9-11.5,3.83.59,11.52,1.72,13.5,4Z"/><path class="cls-75" d="m171.2,80.05c-3.69.56-7.31,1.44-11,2-.81-2.71-6.65-1.55,0-5,1.07-.56,6.38-2.23,9.5-3.5.47-.19,1.53-.31,2-.5,1.79,1.2,4.09-2.74,7.25.5,2.61-1.68,5.67-2,8.75-3-1.19,1.57-10.04,5.23-12.25,6-4.21,1.47-13.89,2.64-10,3.5.66.14,4.52-1.81,5.75,0Z"/><path class="cls-33" d="m200.2,58.05l.5,1.5c-2.84,1.56-5.58,3.61-8.5,5-6.54,3.12-13.76,5.75-20.5,8.5-.47.19-1.53.31-2,.5-1.5-.58-2.45-.38-2-2,3.96-.91,7.39-3.47,11-5,7.05-2.98,14.5-5.37,21.5-8.5Z"/><path class="cls-41" d="m160.2,77.05c-6.65,3.45-.81,2.29,0,5,.55,1.83-.41.22-.5,2-2.84,0-5.66-.09-8.5,0-.18-2.01.62-5.48,2-7,.49-.05.89.75,1.25,1,.84-.06,1.94-2.13,5.75-1Z"/><path class="cls-90" d="m152.7,77.05c.16-.02.34.02.5,0-1.38,1.52-2.18,4.99-2,7-18.63.58-13.68,1.59,1.25,1.5l12.75,3.5c2.92,2.08,9.71.44,10,3.5-8.67-1.08-17.48-5.96-33,2-.11-.26-.94-1.9-1-2-.17-.28.27-1.06-.25-1.5-1.41-1.21-14.81-.16-17.75,0l2.25-4.5c-2.14-.03-4.15.77-6.25,1-.05-1.78,4.7-1.36,5.5-3,3.42-.06,2.95-.17,5.5-2,1.36-.98.88-1.86,3-1.5,2.42,4.48,3.88-1.12,6.25-2,.63-.23,11.52-1.82,13.25-2Z"/><path class="cls-33" d="m112.2,73.05q6.75,1.5,13.5,3c.87.56,2.4,1.16,3.25,2,.99-1.12,2.1-2.04,3.25-3,.19,1.52.76,5.56,1,6-2.12-.36-1.64.52-3,1.5-3.02-2.9-16.34-3.43-24.5-5-1.83-.35-3.68-.63-5.5-1-.36-3.68,7.74-.8,9.5-3.5.81.1,1.68-.07,2.5,0Z"/><path class="cls-41" d="m141.2,92.55c.06.1.89,1.74,1,2,.03.06-.41-.06-1,.75,7.28,4.08,15.34,6.82,22.5,11.25-1.81-.75-12.09-5.22-12.75-5-.17.06-1.82,2.96-2,3-.22.05-1.05-1.04-4.25-1.5-2.73-.39-3.38-2.03-4.75,1.5,3.56-8.46-14.56,3.65-19,5.5-6.1,2.55-12.59,4.45-18.75,7-6.18,2.55-12.46,4.5-18.5,7.5-4.14-2.58-6.41,3.66-10,3.5.11-2.02.49-4.04,1-6,4.1-1.76,12.97-7.52,21.75-11.5,14.59-6.61,30.09-11.5,44.75-18Z"/><path class="cls-41" d="m123.2,91.05c-5.91.33-11.66,1.02-17.5,2,3.12-4.06-2.08-.63-1.5-4.5,3.86-.09,7.65-.18,11.5-.5.98-.08,2.26-.36,3.5-.5,2.1-.23,4.11-1.03,6.25-1l-2.25,4.5Z"/><path class="cls-121" d="m55.7,80.05l7.5,1c6.12,1.41,13.63.87,19.5,1.5,3.9.42,6.2,1.25,8.5,1.5.62,3.89,7.22.78,8.5,4.5-12.62.06-24.94-1.58-37.5-2-7.92-.26-15.6.07-23.5,0,1.44-1.98,2.13-3.77,3-6,4.73-.45,8.71-1.85,14-.5Z"/><path class="cls-37" d="m99.7,88.55c1.5,0,3,.03,4.5,0-.58,3.87,4.62.44,1.5,4.5-11.4,1.91-22.64,5.37-33.75,8.5-.82.23-1.19-1.23-2-1-.74.21-11.84,5.95-13.75,7-.46-.53-.36-1.15-.5-1.5,6.31.11,0-3.98-.5-11.5,2.02-2.85,4.77-5.31,7-8,12.56.42,24.88,2.06,37.5,2Z"/><path class="cls-67" d="m55.7,106.05c-1.1-2.75-1.67-5.61-3-8.25.05-.87,1.8-2.27,2.5-3.25.51,7.52,6.81,11.61.5,11.5Z"/><path class="cls-103" d="m168.2,44.55c-1.57,2.68-2.93,5.71-4.5,8.5-4.95,2.62-9.59,1.53-4,7.5-.36.59-1.72,1.54-2,2-.39-2.73-2.15-1.1-3,.5-1.47-1.86-4.78,3.88-5.5,6-5.8-.89-1.47-4.23,2-13.75.09-2.11-13.98-9.71-14.5-4-.06.61,1.76,10.01,2,12,.28,2.24-.85,3.35,1,6.75-1.23.09-1.35.09-2.5.5.38-2.57-1.41-3.33-1.5-3.5-1.94-3.53-3.08-4.03-4.5-6.5-.52-.89-3-10.53-1.75-2.5-1.44.91-5.6-6.24-8.75-1.5-2.54-3.78-5.41-8.44-8-12,4.51-2.13,20.4-10.45,22.75-11,11.14-2.6,22.99,6.68,32.75,11Z"/><path class="cls-52" d="m159.7,60.55c-5.59-5.97-.95-4.88,4-7.5-1.37,2.43-2.56,5.12-4,7.5Z"/><path class="cls-52" d="m131.2,60.55c-2.2-.89-5.86-1.67-8-.5-.76-1.15-1.7-2.31-2.5-3.5,3.15-4.74,7.31,2.41,8.75,1.5-1.25-8.03,1.23,1.6,1.75,2.5Z"/><path class="cls-103" d="m103.2,53.55c1.21,1.18,2.9,2.81,4,4,2.55,2.77,4.17,6.9,8,8.5.07.13-.06.36,0,.5.38.84.73,1.67,1.5,2.25l-.75.75q-5.87-1-11.75-2c-4.89-2.18-9.68-4.13-14.5-6.5,2.8-3.62,9.31-5.07,13.5-7.5Z"/><path class="cls-2" d="m125.7,76.05q-6.75-1.5-13.5-3c4.75-1.18-5.34-4.31-8-5.5q5.87,1,11.75,2l.75-.75c-.77-.58-1.12-1.41-1.5-2.25,3.96,2.39,6.61,7.02,10.5,9.5Z"/><path class="cls-104" d="m105.7,72.55c1.4.1,2.63.33,4,.5-1.76,2.7-9.86-.18-9.5,3.5-2.16-.44-4.35-1-6.5-1.5-2.91-5.55,7.66-2.02,8.25-2,1.94.06,2.71-.57,3.75-.5Z"/><path class="cls-70" d="m93.7,75.05c2.15.5,4.34,1.06,6.5,1.5,1.82.37,3.67.65,5.5,1l-3,3c-.74-.2-1.76-.8-2.5-1-4.8-1.28-14.33-5.48-18-6-.32-.05-.67.03-1,0,2.39-2.9,8.76.64,12.5,1.5Z"/><path class="cls-103" d="m79.7,73.55c.5.03,1.01-.05,1.5,0,.33.03.68-.05,1,0-.7,8.88-6.33.43-11,1.5-.02-.03-.56.11-.5-.5.05-.01-.17-.92.25-1,1.19-.21,6.92-.12,8.75,0Z"/><path class="cls-132" d="m110.2,60.05c1.66,1.89,3.84,3.84,5,6-3.83-1.6-5.45-5.73-8-8.5,1.3-.73,2.57,2.01,3,2.5Z"/><path class="cls-102" d="m192.2,64.55c-.03,4.56,2.93.31,5.5,2-3.29,1.44-6.57,2.89-10,4-3.08.99-6.14,1.32-8.75,3-3.16-3.24-5.46.7-7.25-.5,6.74-2.75,13.96-5.38,20.5-8.5Z"/><path class="cls-107" d="m182.7,84.55c-.58,1.51,1.66.7,2,1.25.41.67-2.99,6.7,11.75,4.75,3.21-.43,9.23-3.33,12.5-4,1.82-.37,5.53.9,5.75-1.5,8.68.36,17.33.98,26,1.5-3.72.46-3.42,2.25-4.75,3-3.08,1.72-16.31,5.63-20,6-7.84.79-16.13-.84-24,0-2.94-1.87-6.2-2.06-9.5-2.5-.4-.05-.1-.95-.5-1-1.05-.14-3.14.69-4.5.5-.23-.03-.77-.97-1-1-.32-.04-.69,1.01-.75,1-.16-.02-.34.02-.5,0-.29-3.06-7.08-1.42-10-3.5l.5-5c5.63.02,11.34.42,17,.5Z"/><path class="cls-107" d="m163.7,106.55c11.51,4.78,21.72,11.61,30,15-.13,1.17.19,3.44,0,3.75-.43.7-2.07-.04-3-.25-.22-.05-2.58-1.36-4-2-4.66-2.12-8.86-5.24-13.5-7.5-9.38-4.56-18.95-8.36-28.5-12.5,3.2.46,4.03,1.55,4.25,1.5.18-.04,1.83-2.94,2-3,.66-.22,10.94,4.25,12.75,5Z"/><path class="cls-59" d="m223.7,101.55c-2.81,1.94-6,5.35-6.75,5.5-3.02.59-5.69-2.9-8.25-2-.86-.32-1.67-.68-2.5-1-5.89-1.54,16.02-5.23,17.5-2.5Z"/><path class="cls-18" d="m254.2,87.55c-4.33-.33-8.67-.74-13-1l-1.75-1.5c-32.55-.75-6.79-1.66,7-2q3.87,2.25,7.75,4.5Z"/><path class="cls-79" d="m250.7,93.05c-.15.04.14.14-3,1-.31-1.48,1.17-.92,3-1Z"/><path class="cls-18" d="m181.2,79.05c1.58,1.62,7.07-.64,8,.25.15.15.75,3.89.25,4.25-.32.23-6.29-.19-6.75,1-5.66-.08-11.37-.48-17-.5-2,0-4,0-6,0,.09-1.78,1.05-.17.5-2,3.69-.56,7.3-1.44,11-2,3.34-.5,6.64-.72,10-1Z"/><path class="cls-52" d="m70.7,74.55c-.06.61.48.47.5.5,2.46,2.67,8.12,6.38,11.5,7.5-5.87-.63-13.38-.09-19.5-1.5-4.92-2.49,4.84-5.83,7.5-6.5Z"/><path class="cls-10" d="m214.7,85.05c-.22,2.4-3.93,1.13-5.75,1.5-3.27.67-9.29,3.57-12.5,4-14.74,1.95-11.34-4.08-11.75-4.75-.34-.55-2.58.26-2-1.25,10.65.15,21.36.06,32,.5Z"/><path class="cls-38" d="m78.7,303.04c.18,5.02-.45,13.19,0,16.5.14,1.02.99,3.81,1.5,4.5-2.87-1.1.78,1.68-2,4.5l-2-1.5c-.44-.88-.86-.81-1-2-.18-1.55.27-3.98,0-5-.36-1.36-.47-.95-.5-1,.82-3.92.61-8.5.5-12.5,4.55.83,1.03-3.31,3.5-3.5Z"/><path class="cls-18" d="m49.7,155.05c1.2,47,1.52,94,2.5,141,.09,4.23.34,8.84-.5,13-.6-.61-2.2-1.14-2.5-1.75l-.5-2.25q-1.25-74.87-2.5-149.75l-1-1.25c.66.04.47-.45.5-1l4,2Z"/><path class="cls-102" d="m55.2,262.54c.43,10.73.72,30.57,4,40-5.58-1.53-3.14,5.48-4,9-.17-.14-.96.11-3.5-2.5.84-4.16.59-8.77.5-13,1.26-7.34.03-14.89.5-22.25.02-.39.97-.11,1-.5.38-5.17-.66-11.82,1.5-10.75Z"/><path class="cls-42" d="m59.2,302.54c3.66,10.53,13.86,13.25,15.5,16.5.03.05.14-.36.5,1-.65,3.16-2.95-1.13-8.25-2.5-2.56-2.46-7.71-11.15-8.25-3-2.03-1.48-3.12-2.7-3.5-3,.86-3.52-1.58-10.53,4-9Z"/><path class="cls-24" d="m75.2,320.04c.27,1.02-.18,3.45,0,5-5.44-3.52-11.26-6.69-16.5-10.5.54-8.15,5.69.54,8.25,3,5.3,1.37,7.6,5.66,8.25,2.5Z"/><path class="cls-16" d="m55.7,124.05c3.85,2.38,13.42,6.17,18,6-.63,19.46.38,39.03.5,58.5.25,39.32-.06,78.68,1,118,.11,4,.32,8.58-.5,12.5-1.64-3.25-11.84-5.97-15.5-16.5-3.28-9.43-3.57-29.27-4-40-1.83-46.03.4-92.2-1-138.25l1.5-.25Z"/><path class="cls-45" d="m78.7,174.05c-.03.16.02.34,0,.5-.54,5.3-.52,73.72-.5,87.5.02,13.71.02,27.29.5,41-2.47.19,1.05,4.33-3.5,3.5-1.06-39.31-.75-78.67-1-118,4.92.61-.53-18.23,3.75-16,.54.28-.15,1.46.75,1.5Z"/><path class="cls-70" d="m49.2,115.55c-.77-.08-.49,1.62-.5,3.5-.05,11.95.7,24.04,1,36l-4-2c.25-5.28-1.66-37.9-.5-39.5,1.25.6,2.82,1.49,4,2Z"/><path class="cls-74" d="m74.7,122.05c-.51,1.95-.89,3.98-1,6-.04.66.02,1.34,0,2-4.58.17-14.15-3.62-18-6-2.84-1.75-3.95-4.76-7-5,0-1.88-.27-3.58.5-3.5.52.22,5.05.82,5.25,1,1.71,1.49-4.29,5.02,16.5,7.5,2.26-.34,2.9-1.64,3.75-2Z"/><path class="cls-102" d="m55.7,124.05l-1.5.25c1.4,46.04-.83,92.22,1,138.25-2.16-1.07-1.12,5.58-1.5,10.75-.03.39-.98.11-1,.5-.47,7.36.76,14.91-.5,22.25-.98-47-1.3-94-2.5-141-.3-11.96-1.05-24.05-1-36,3.05.24,4.16,3.25,7,5Z"/><path class="cls-50" d="m83.7,124.55c-1.6.79-5.97,2.4-6.5,3-.04.05-.47.03-1,.75l.5,41.5c.13.38,2.86,2.3,3.5,2.75-.84-.3-1.4.94-1.5,1.5-.9-.04-.21-1.22-.75-1.5-4.28-2.23,1.17,16.61-3.75,16-.12-19.47-1.13-39.04-.5-58.5.02-.66-.04-1.34,0-2,3.59.16,5.86-6.08,10-3.5Z"/><path class="cls-10" d="m142.2,199.05c1.01-.98,1.44-2.36-.25-2.5-1.1-.09-.2,2.38-.25,2.5-.1.24-1.44-1.72-1.5,4-1.49.43-3.01.61-4.5,1,0-.11-.62-1.98-1-2v-44.5c.08.02-.48-1.32,1.25-1,2.96,2.98-.47,42.51,2.5,42.5,3.36-7.97,8.74-1.64,3.75,0Z"/><path class="cls-19" d="m221.7,300.54c.09,3.71.06,5,4.5,4-.15.93.38,1.79-.75,2.5-3.29,2.53-6.81,4.68-10.25,7-.5.34-.99.67-1.5,1-.14.09-2.59.6-3.25,1-1.1.66-.54,1.74-1,2-4.21,2.43-11.98,6.49-16.25,7,.12-2.66-.11-5.34,0-8,8.17-5.79,18.15-9.28,27.75-11.5.34-.26-.24-4.57-.25-5.5.55.03,1.04-.16,1,.5Z"/><path class="cls-75" d="m227.7,115.55c.02.28,0,1.55,0,2-.02,13.48-.43,27-.5,40.5-.21,42.15-.45,84.36-1,126.5h-3.5c.09-10.84.39-21.67.5-32.5.19-18.18,2.21-128.83,1-135.5-.03-.16.04-.35,0-.5l3.5-.5Z"/><path class="cls-74" d="m226.2,292.54c-.08,3.58.35,9.89,0,12-4.44,1-4.41-.29-4.5-4-.07-2.77.45-6.11.5-9l4,1Z"/><path class="cls-38" d="m226.2,284.54c-.04,2.66.06,5.34,0,8l-4-1c0-.35.47-2.68.5-7h3.5Z"/><path class="cls-38" d="m223.2,252.04c-.11,10.83-.41,21.66-.5,32.5-.03,4.32-.49,6.65-.5,7-.05,2.89-.57,6.23-.5,9,.04-.66-.45-.47-1-.5-.03-2.85-.6-5.66-.75-8.5-8.41,3.59-17.2,6.53-26.25,8,.05-1.41-.26-9.13.25-9.5,8.23-.61,18.31-1.72,25.25-6.25.02-1.92-.03-3.83,0-5.75.06-3.88-.51-8.03-.5-12,2.61-1.95,1.05-11,4.5-14Z"/><path class="cls-8" d="m220.7,300.04c.01.93.59,5.24.25,5.5-9.6,2.22-19.58,5.71-27.75,11.5.11-2.67.45-5.28.5-8,5.32-2.11,23.06-9.19,27-9Z"/><path class="cls-45" d="m224.2,116.55c1.21,6.67-.81,117.31-1,135.5-3.45,3-1.89,12.05-4.5,14,.12-41.66-1.04-83.36-.5-125,.09-7.16.67-14.33.5-21.5.3-.14-.43-1.2,5.5-3Z"/><path class="cls-45" d="m218.7,119.55c.17,7.17-.41,14.34-.5,21.5-.38,16.86-1.95,6.73-8.5,14.25-3.98,4.57-4.49,10.78-5.5,16.5-.07.4-.94.1-1,.5-2.66,17.22.02,82.98-1,106.5,1.23,1.73,11.15-3.11,14.75-3.25,2.4-.42.19,2.7,2.25,2.5-.03,1.92.02,3.83,0,5.75-6.94,4.53-17.01,5.64-25.25,6.25-.51.37-.2,8.09-.25,9.5-.09,2.66.07,5.34,0,8-.35,0-.87.13-1-.25-.56-1.62.46-29.52.5-34.25.22-29.67.66-59.33.5-89,5.19-.97,5.21-17.44,9.5-24.75l.5-32.75c5.03-2.52,9.96-4.62,15-7Z"/><path class="cls-74" d="m220.7,300.04c-3.94-.19-21.68,6.89-27,9,0-.5-.01-1,0-1.5.07-2.66-.09-5.34,0-8,9.05-1.47,17.84-4.41,26.25-8,.15,2.84.72,5.65.75,8.5Z"/><path class="cls-75" d="m218.7,266.04c-.01,3.97.56,8.12.5,12-2.06.2.15-2.92-2.25-2.5-3.6.14-13.52,4.98-14.75,3.25,1.02-23.52-1.66-89.28,1-106.5.06-.4.93-.1,1-.5,1.01-5.72,1.52-11.93,5.5-16.5,6.55-7.52,8.12,2.61,8.5-14.25-.54,41.64.62,83.34.5,125Z"/><path class="cls-38" d="m203.7,126.55l-.5,32.75c-4.29,7.31-4.31,23.78-9.5,24.75.19-3.49.46-7.01.5-10.5.18-14.41-.14-28.84,0-43.25.82-1.32,2.49-.49,3-.75,2.12-1.1,4.39-1.94,6.5-3Z"/><path class="cls-123" d="m37.2,87.55c.12.11-.14,1.11,0,1.25,6,5.69,13.66,12.47,17,19.75-2.98,1.69-5.76,3.72-9,5-13.71-6.52-26.92-14.21-40.5-21-1.33-.67-2.67-1.34-4-2,.11-.43-1.05-.83-.25-1.5,1.5-.83,2.81-.3,3.75-.5,10.17-2.17,20.76-.71,31-2,.43.23,1.92.92,2,1Z"/><path class="cls-73" d="m62.2,86.55c-2.23,2.69-4.98,5.15-7,8-.7.98-2.45,2.38-2.5,3.25,1.33,2.64,1.9,5.5,3,8.25.14.35.04.97.5,1.5-.98.54-1.8.89-2,1-3.34-7.28-11-14.06-17-19.75-.14-.14.12-1.14,0-1.25.76.2,1.18-.56,1.5-1,7.9.07,15.58-.26,23.5,0Z"/><path class="cls-67" d="m4.7,92.55c-.01.89-1.34.22-1.5.75-.94,3.14,1.29,30.76,1.5,36.75-.32-.04-.74.07-1,0-.94-.26-3.24-2.23-3.5-3.25-.45-1.76-.09-33.92.5-36.25,1.33.66,2.67,1.33,4,2Z"/><path class="cls-126" d="m45.2,113.55c-1.16,1.6.75,34.22.5,39.5-.03.55.16,1.04-.5,1q-20.25-11.75-40.5-23.5c0-.17,0-.33,0-.5-.21-5.99-2.44-33.61-1.5-36.75.16-.53,1.49.14,1.5-.75,13.58,6.79,26.79,14.48,40.5,21Z"/><path class="cls-112" d="m28.45,115.05c3.52-.49,4.77,5.93,1,6-3.27.06-4.38-5.53-1-6Z"/><path class="cls-92" d="m35.95,139.05c4.37-1.11,4.59,6.72,0,5.5-2.26-.6-2.22-4.94,0-5.5Z"/><path class="cls-22" d="m10.45,120.55c2.44-.24,1.36,3.74-.5,3-.99-.39-.61-2.89.5-3Z"/><path class="cls-22" d="m13.7,115.05h1c2.87,2.09-2.74,3.18-2.5.25.04-.48,1.06-.12,1.5-.25Z"/><path class="cls-123" d="m14.7,115.05h-1c.12-.03-.26-.92,1,0Z"/><path class="cls-126" d="m45.2,154.05l1,1.25q1.25,74.87,2.5,149.75c-9.77-6.83-20.35-12.32-30.5-18.5-2.73-1.66-5.66-3-8-5.25-1.94-38.4-3.15-76.82-4.5-115.25-.42-11.83-.58-23.68-1-35.5q20.25,11.75,40.5,23.5Z"/><path class="cls-105" d="m11.45,168.05c7.15,4.14,4.77,1.85,10.25.25-1.47,4.95-1.01,5.38,2.5,8.5-7.26.74-5.5,5.7-6.75,5.75-1.24.05.58-5.09-8.75-4.25,4.43-4.89,3.58-4.04,2.75-10.25Z"/><path class="cls-105" d="m14.95,194.55c3.38,2.81,5.76,3.52,9,0,1.73,2.73-2.83,5.08,3.75,8.75-9.53.81-4.39,10.93-9.75,1.75-13.43.96,1.54-.68-3.75-9.75l.75-.75Z"/><path class="cls-81" d="m23.45,230.04c10.76,1.66,2.39-1.25,7.75,5.25-4.83,1.12-3.08,3.26-3.75,3.75-.91.66-.99-3.06-5.25-2.75,1.46-1.76,1.74-3.49.5-5.5l.75-.75Z"/><path class="cls-87" d="m40.45,182.05c.55.34.08,1.64.25,1.75,1.19.77.53-2.29,3,2.5-5.85,6.08-7.32-2.02-7-2.5.11-.17,3.57-1.86,3.75-1.75Z"/><path class="cls-87" d="m38.95,211.55c.27,0,3.77,2.83,4.25,3.25-2.78,1.46-.82,2.97-1.25,3.25-6.8.03-6.58-6.52-3-6.5Z"/><path class="cls-52" d="m15.45,245.54c4.58-.77,2.94,9.65-2,4.5-1.62-1.68,1.71-4.45,2-4.5Z"/><path class="cls-53" d="m19.45,146.55c3.85-1.99,4.58,4.76.5,3.5-1.1-.34-1.97-2.74-.5-3.5Z"/><path class="cls-52" d="m35.95,163.55c.98-.14,2.94,2.59,1,3.5-2.36,1.11-3.31-3.16-1-3.5Z"/><path class="cls-17" d="m28.45,150.05c1.07-.37,3.36.33,3.25,1.75-.22,2.77-5.83-.85-3.25-1.75Z"/><path class="cls-5" d="m27.45,281.54c2.68-.88,1.89,2.73,1,3-.52.16-2.81-2.41-1-3Z"/><path class="cls-87" d="m27.7,259.04c.55.14,1.56.31,2,.5,4.41,1.88,3.8,3.3,4,3.5l-.25,1.5c-.09-1.45-1.8-2.42-3.25-2.5-3.37-.19-6.04,4.43-2.5,6-1.05,1.1-.73,2.58-1,3-1.17,1.82-3.73,3.56-3.5,0,.02-.3.9,1.48,1-5.25l-3.5.25c.8-2.43,7.34-.87-4-8.5,3.83.33,4.32,4.31,7.75.5,2.35,2.68,2.81.89,3.25,1Z"/><path class="cls-87" d="m32.2,268.54c.22.64-.22,2.14,0,2.75.34.94,4.92,8.22,3.75,8.75-3.75-2.73-2.63-13.9-7-4-1.75-2.66.52-5.53-2.25-5,.27-.42-.05-1.9,1-3,.1-.11.66.22,2.5-1.5.17.8,1.95,1.87,2,2Z"/><path class="cls-101" d="m27.7,259.04c-.44-.11-.9,1.68-3.25-1-3.43,3.81-3.92-.17-7.75-.5,5.86-3.17,8.67,1.48,10.75-5.5l.25,7Z"/><path class="cls-63" d="m33.7,263.04c2.62,2.63-.17,2.76,5,4,1.01,4.21-1.73-1.05-6.5,1.5-.05-.13-1.83-1.2-2-2-.05-.22,1.2-1.4,0-4.5,1.45.08,3.16,1.05,3.25,2.5l.25-1.5Z"/><path class="cls-89" d="m38.7,267.04c-5.17-1.24-2.38-1.37-5-4-.2-.2.41-1.62-4-3.5-2.09-3.86,4.23-1.09,4.75-.5,2.04,2.34-.48,7.66,6.25,8.25l-.25.75c-.41-.36-1.27-.88-1.75-1Z"/><path class="cls-89" d="m23.2,271.04c-2.12-1.2-3.47-2.03-2.5-5l3.5-.25c-.1,6.73-.98,4.95-1,5.25Z"/><path class="cls-1" d="m30.2,262.04c1.2,3.1-.05,4.28,0,4.5-1.84,1.72-2.4,1.39-2.5,1.5-3.54-1.57-.87-6.19,2.5-6Z"/><path class="cls-41" d="m159.7,84.05c2,0,4,0,6,0l-.5,5-12.75-3.5c-14.93.09-19.88-.92-1.25-1.5,2.84-.09,5.66,0,8.5,0Z"/><path class="cls-42" d="m130.2,82.55c-2.55,1.83-2.08,1.94-5.5,2-2.12.04-11.85-1.45-14.5-2-1.96-.41-5.3-1.41-7.5-2l3-3c8.16,1.57,21.48,2.1,24.5,5Z"/><path class="cls-33" d="m124.7,84.55c-.8,1.64-5.55,1.22-5.5,3-1.24.14-2.52.42-3.5.5-1.21-2.45-5.05-2.22-7.5-2.5,1.38-.71,3.24-.87,2-3,2.65.55,12.38,2.04,14.5,2Z"/><path class="cls-42" d="m92.2,84.05c5.32.59,10.71.9,16,1.5,2.45.28,6.29.05,7.5,2.5-3.85.32-7.64.41-11.5.5-1.5.03-3,0-4.5,0-1.28-3.72-7.88-.61-8.5-4.5.33.04.67-.04,1,0Z"/><path class="cls-103" d="m100.2,79.55l-8,4.5c-.33-.04-.67.04-1,0-2.3-.25-4.6-1.08-8.5-1.5-3.38-1.12-9.04-4.83-11.5-7.5,4.67-1.07,10.3,7.38,11-1.5,3.67.52,13.2,4.72,18,6Z"/><path class="cls-126" d="m102.7,80.55c2.2.59,5.54,1.59,7.5,2,1.24,2.13-.62,2.29-2,3-5.29-.6-10.68-.91-16-1.5l8-4.5c.74.2,1.76.8,2.5,1Z"/><path class="cls-118" d="m142.2,199.05h-.5c.05-.12-.85-2.59.25-2.5,1.69.14,1.26,1.52.25,2.5Z"/><path class="cls-10" d="m199.2,123.05c-2.23,2.54-2.23,2.91-2,6.5-.51.26-2.18-.57-3,.75-.14,14.41.18,28.84,0,43.25-1.24-.29-.97.95-1.5,1.5-3.24,3.38-41.93,21.43-49.75,27.5-.96-.12-1.86.24-2.75.5.06-5.72,1.4-3.76,1.5-4h.5c4.99-1.64-.39-7.97-3.75,0-2.97,0,.46-39.52-2.5-42.5-1.73-.32-1.17,1.02-1.25,1-1.97-.43-1.9-.95-2-1,2.72-1.02,5.1-3.26,5.5-3.5,6.71-3.91,21.47-11.18,29.25-15,7.81-3.84,22.07-8.06,23.25-13,.93.21,2.57.95,3,.25.19-.31-.13-2.58,0-3.75,1.28.52,2.58,1.26,3.75,2,1.15.13,1.26-.39,1.75-.5Z"/><path class="cls-77" d="m180.95,162.05c1.46-.02,1.1,2.89-.5,2.5-1.48-.36-.08-2.49.5-2.5Z"/><path class="cls-1" d="m153.45,188.55c.9-.21,2.38,1.65,1,2-1.78.45-2.24-1.72-1-2Z"/><path class="cls-61" d="m177.95,138.55c.42-.28,2.22.15,2.25.75.1,1.87-4.3.58-2.25-.75Z"/><path class="cls-11" d="m167.95,175.55c1.49.21.63,2.42,0,2.5-1.2.16-1.19-2.66,0-2.5Z"/><path class="cls-39" d="m150.95,153.05c1.23-.27,1.67,1.74.5,2-1.23.27-1.67-1.74-.5-2Z"/><path class="cls-25" d="m157.45,169.55c1.8-1.17,1.77,2.24.5,2-.55-.1-1.17-1.57-.5-2Z"/><path class="cls-63" d="m173.95,156.55c2.49-.24.8,2.08,0,2-.31-.03-1-1.9,0-2Z"/><path class="cls-78" d="m150.45,165.55c1.13-.61,1.78,1.07,1,1.5-1.13.61-1.78-1.07-1-1.5Z"/><path class="cls-118" d="m168.45,146.05c.18,0,1.1.72.25,1.25-.95.6-1.11-1.25-.25-1.25Z"/><path class="cls-5" d="m183.95,169.55c.75-.3,1.1.76.5,1-.75.3-1.1-.76-.5-1Z"/><path class="cls-116" d="m164.45,151.05c.75-.3,1.1.76.5,1-.75.3-1.1-.76-.5-1Z"/><path class="cls-32" d="m162.95,172.05c.75-.3,1.1.76.5,1-.75.3-1.1-.76-.5-1Z"/><path class="cls-116" d="m147.45,193.05l.25.25v.5l-.25.25h-.5l-.25-.25.25-.25.25-.25.25-.25Z"/><path class="cls-10" d="m137.7,296.54l-1-1.5c0-.33,0-.67,0-1-.09-11.56-.99-23.17-.5-34.75-.2-.61-.82.51-1,.25-.05-.07.1-.18-1-1.5,3.11.21,2.07-16.43,2-24.5,0-.17,0-.33,0-.5-.04-4-.41-7.98-.5-12,3.68.87,1.64,12.95,2.5,20.75.05.47,1.44.03,1.5.5.36,2.65.29,50.94-.5,53.5-.27.86-1.48.67-1.5.75Z"/><path class="cls-59" d="m134.2,258.04c-.12-.14-1.45-.92-1.5-1-1.77-2.89-.72-21.5.25-21,.92,3.76.8,1.12.25-1.5l3-1c.07,8.07,1.11,24.71-2,24.5Z"/><path class="cls-71" d="m135.7,206.55c.08,4.83-.11,9.67,0,14.5.09,4.02.46,8,.5,12,.34-3-3.4-3.15-4-1.25-.49,1.56.97,2.61,1,2.75.55,2.62.67,5.26-.25,1.5-.97-.5-2.02,18.1-.25,21-3.55,1.89-.12,5.99,2.5,2.5.18.26.8-.86,1-.25-.49,11.58.41,23.19.5,34.75-4.45-4.62-6.22,4.62-.5,2,.15,20.26-.2,40.49-.5,60.75l-3.5-.25c-6.7-6.82-49.5-29.11-52-32.5-.51-.69-1.36-3.48-1.5-4.5,1.2-19.15.25-38.36-.5-57.5-.02-13.78-.04-82.2.5-87.5,19.44,9.84,38.85,19.88,57,32Z"/><path class="cls-112" d="m78.7,319.54c-.45-3.31.18-11.48,0-16.5-.48-13.71-.48-27.29-.5-41,.75,19.14,1.7,38.35.5,57.5Z"/><path class="cls-22" d="m136.7,294.04c0,.33,0,.67,0,1,0,.06-.51-.31-.5,1-5.72,2.62-3.95-6.62.5-2Z"/><path class="cls-81" d="m89.45,254.54l1.75,3.75c-5.36,4.33.03,2.56-6.5,1,.48-7.58.26-1.62,4.75-4.75Z"/><path class="cls-126" d="m95.7,209.55c-.45,10.89-.36,4.43-11.5,8.25-.18.25,4.22,4.11,4.5,4.25,1.9,3.82-5.37,5.32-5.75,5-.34-.28-.66-8.34.75-8.25-5.45-3.14,6.62-3.84,8.75-5.25,1.14-.76,1.71-3.24,3.25-4Z"/><path class="cls-101" d="m97.7,220.55c-3.48-1.38-6.23,2.16-7.5,2-.08-.01-1.43-.47-1.5-.5-.28-.14-4.68-4-4.5-4.25,11.14-3.82,11.05,2.64,11.5-8.25,5.01-2.46,1.2,7.32,2,11Z"/><path class="cls-1" d="m98.7,222.05c1.22,5.69-.33,3.73-.5,4.75-.03.21,3.76,1.32-.75,1.75-3.48.33-3.26-1.67-3.75-2.75-.58-1.28-2.1.33-.5-3.25.98-.49,4.09-.52,5.5-.5Z"/><path class="cls-63" d="m97.7,220.55c.02.09.62-.27,1,1.5-1.41-.02-4.52,0-5.5.5-.64.32-1.03.74-1.5,1.25-.79,3.44-4.64,5.23-1.5-1.25,1.27.16,4.02-3.38,7.5-2Z"/><path class="cls-30" d="m123.45,327.54c.18.05,1.78,3.07,1.75,3.25-.05.3-3.76,3.02-5,1-.09-.15-.08-3.35,0-3.5.08-.15,3.09-.8,3.25-.75Z"/><path class="cls-22" d="m136.2,233.04c0,.17,0,.33,0,.5l-3,1c-.03-.14-1.49-1.19-1-2.75.6-1.9,4.34-1.75,4,1.25Z"/><path class="cls-30" d="m119.45,239.04c2.81-.24,1.38,6.5-1.5,4-1.87-1.63,1.24-3.98,1.5-4Z"/><path class="cls-22" d="m134.2,258.04c1.1,1.32.95,1.43,1,1.5-2.62,3.49-6.05-.61-2.5-2.5.05.08,1.38.86,1.5,1Z"/><path class="cls-48" d="m91.95,189.05c5.79-.59,4.45,5.46.25,2.75l-.25-2.75Z"/><path class="cls-87" d="m83.95,204.55c.45-.05,3.72,1.72,2,3-3.03,2.26-4.69-2.71-2-3Z"/><path class="cls-92" d="m131.45,314.54c2.65-1.25,2.83,3.28,1,3.5-1.43.17-2.64-2.73-1-3.5Z"/><path class="cls-17" d="m105.95,194.05c2.13-.7,2.89,1.87,2,2.5-1.58,1.12-3.9-1.87-2-2.5Z"/><path class="cls-112" d="m98.95,321.04c1.88-.73,2.94,2.02,1.5,2.5-2.16.71-3.07-1.89-1.5-2.5Z"/><path class="cls-67" d="m91.95,316.04c1.16-.67,3.36,1.26,2.75,2.25-.8,1.28-3.93-1.57-2.75-2.25Z"/><path class="cls-87" d="m93.95,269.54c1.06-.41,2.54-.18,2.25,1.25-.5,2.46-4.81-.27-2.25-1.25Z"/><path class="cls-12" d="m127.45,211.05c9.48-.78-5.06,2.97-2,.5,1.62.27,1.9-.49,2-.5Z"/><path class="cls-89" d="m108.7,288.04c.07-.03.04-1.05,1.5-.25.69,2.24-11.32,8.1,4,13,.12,2.58-.3.41-2,2.75-1.95-1.79-4.51-3.26-5.25-4.5-.71.4-1.2.92-1.75,1.5-2.23.05.39-1.19.5-1.75,1.04-5.28-.86.03-3,1.25.19-.1,1.38-3.75,1-4.25-.14-.19-4.55-.88-4.75-.75-1.46.97.58,6.71,3.75,5-3.06,1.74-6,.24-5.5-3.25-1.43-1.01-3-1.84-4.5-2.75,11.91-5.3,5.14-2.45,6.25-11.5,2.21,3.21,2.76,6.77,5.5,9.5l4.25-4Z"/><path class="cls-112" d="m108.7,288.04l-4.25,4c-2.74-2.73-3.29-6.29-5.5-9.5-1.11,9.05,5.66,6.2-6.25,11.5-.17-.1-2.29-.77-3.75-1.5l-.25-1.25c7.82-2.61,8.59-14.68,12.5-8.5.63,1,1.52,6.74,3.25,7.25,1.77.52,2.13-1.25,4.25-2Z"/><path class="cls-112" d="m112.2,303.54c-.15.21,1.81.39-3,3.25l-.25,9.75c-2.74-3.87-7.36-12.2-3.75-16,.55-.58,1.04-1.1,1.75-1.5.74,1.24,3.3,2.71,5.25,4.5Z"/><path class="cls-11" d="m102.7,300.04c-3.17,1.71-5.21-4.03-3.75-5,.2-.13,4.61.56,4.75.75.38.5-.81,4.15-1,4.25Z"/><path class="cls-41" d="m137.7,296.54c-.2.7-.93,1-1,1.25-.57,1.98,1.78,35.41,1.75,41.25q10.75-2,21.5-4c4.73-6.97,14.88-9.72,22-13.5,1.68-.89,9.33-7.75,10.75-5.75-.26,2.85.35,6.62,0,9.25-1.15-.1-2.2,0-3.25.5-5.61,2.66-47.31,27.31-51.75,33.5-.16-.03-.35.04-.5,0-1.74-.5-3.55-1.4-5-2.5l3.5.25c.3-20.26.65-40.49.5-60.75,0-1.31.5-.94.5-1l1,1.5Z"/><path class="cls-41" d="m165.7,319.04s.48-.47.5-.5c1.36-2.49-3.43-1.47,5.75-6.5,2.5.94,4.78.37,5,.5.23.13-1.25,4.89,2.75,2.5.03-.02.48-.47.5-.5,1.49-2.34-1.35-2.22.25-3.5l11.75-5.25c.56-7.05-.75-29.35,0-32.5.09-.37.66-.25,1-.25-.04,4.72-1.06,32.63-.5,34.25.13.38.65.25,1,.25-.01.5,0,1,0,1.5-.05,2.72-.39,5.33-.5,8-.11,2.66.12,5.34,0,8-.03.55.16,1.04-.5,1,.02-.33-.04-.68,0-1,.35-2.63-.26-6.4,0-9.25-1.42-2-9.07,4.86-10.75,5.75-7.12,3.78-17.27,6.53-22,13.5q-10.75,2-21.5,4c.03-5.84-2.32-39.27-1.75-41.25.07-.25.8-.55,1-1.25.02-.08,1.23.11,1.5-.75.79-2.56.86-50.85.5-53.5-.06-.47-1.45-.03-1.5-.5-.86-7.8,1.18-19.88-2.5-20.75-.11-4.83.08-9.67,0-14.5,1.22-.29.03-1.39,0-2.5,1.49-.39,3.01-.57,4.5-1,.89-.26,1.79-.62,2.75-.5,7.82-6.07,46.51-24.12,49.75-27.5,1.34,1.88.35,3.87-1.25,5-15.75,7.26-30.61,17.52-46.75,23.25q-.25,6-.5,12c4.58,2.62,2.23,19.33,1.5,26.5,1.98,13.33-.42,50.21,2.5,60,2.68,8.98,7.91,3.25,10.75,10.75,6.34.05,1.31,9.54,6.75,6.5Z"/><path class="cls-49" d="m166.2,318.54s-.47.48-.5.5c-4.24-.1-.73-5.01.5-.5Z"/><path class="cls-98" d="m144.2,329.04v-1c2.9-1.84,2.39,3.93,0,1Z"/><path class="cls-98" d="m160.45,329.04c1.78-.45,2.24,1.72,1,2-.9.21-2.38-1.65-1-2Z"/><path class="cls-29" d="m180.2,314.54s-.47.48-.5.5c-2.2-.22-.65-3.93.5-.5Z"/><path class="cls-93" d="m144.2,329.04c-.17-.21-1.21-.23,0-1v1Z"/><path class="cls-10" d="m194.2,173.55c-.04,3.49-.31,7.01-.5,10.5.16,29.67-.28,59.33-.5,89-.34,0-.91-.12-1,.25-.75,3.15.56,25.45,0,32.5l-11.75,5.25c-1.6,1.28,1.24,1.16-.25,3.5-1.15-3.43-2.7.28-.5.5-4,2.39-2.52-2.37-2.75-2.5-.22-.13-2.5.44-5-.5-9.18,5.03-4.39,4.01-5.75,6.5-1.23-4.51-4.74.4-.5.5-5.43,3.04-.41-6.45-6.75-6.5-2.84-7.5-8.07-1.77-10.75-10.75-2.92-9.79-.52-46.67-2.5-60,.73-7.17,3.08-23.88-1.5-26.5q.25-6,.5-12c16.14-5.73,31-15.99,46.75-23.25,1.6-1.13,2.59-3.12,1.25-5,.53-.55.26-1.79,1.5-1.5Z"/><path class="cls-44" d="m182.7,198.55c1.84,1.41,2.26-1.09.5-1,.05-.07.16-1.57.75-1.5,3.79.47-2.17,7.56-1.25,2.5Z"/><path class="cls-115" d="m156.45,288.04c1.08-.26,2.24,2.95.5,3-2.02.06-.96-2.89-.5-3Z"/><path class="cls-115" d="m172.45,244.04c.45,0,2.07,1.99.5,2.5-2.32.76-1.7-2.51-.5-2.5Z"/><path class="cls-22" d="m159.95,248.54c1.32-.32,1.74,2.19.5,2.5-1.32.32-1.74-2.19-.5-2.5Z"/><path class="cls-133" d="m168.45,202.05c1.15-.8,2.58,1.67,1,2-1,.21-1.76-1.48-1-2Z"/><path class="cls-49" d="m164.95,271.54c1.92-.44,1.37,1.78.5,2-1.19.3-1.69-1.73-.5-2Z"/><path class="cls-11" d="m167.45,221.55c1.92-.44,1.37,1.78.5,2-1.19.3-1.69-1.73-.5-2Z"/><path class="cls-5" d="m154.45,276.04c1.23-.27,1.67,1.74.5,2-1.23.27-1.67-1.74-.5-2Z"/><path class="cls-22" d="m153.45,243.04c2.31-.62,1.46,2.01.5,2-.3,0-1.89-1.62-.5-2Z"/><path class="cls-25" d="m158.45,300.54c1.23-.27,1.67,1.74.5,2-1.23.27-1.67-1.74-.5-2Z"/><path class="cls-110" d="m166.95,261.54c.71-.45,2.39.2,1.75,1.25-.66,1.1-3.13-.37-1.75-1.25Z"/><path class="cls-110" d="m177.45,273.04c1.29-.29,1.6,1.84.5,2-.69.1-1.99-1.67-.5-2Z"/><path class="cls-53" d="m173.95,281.54c1.54-.98,1.55,2,.5,2-1.18,0-.9-1.74-.5-2Z"/><path class="cls-53" d="m166.95,230.04c2.11-.36,2.11,1.86,0,1.5-.78-.13-.78-1.37,0-1.5Z"/><path class="cls-108" d="m175.45,211.05c2.79-.56.45,2.98-.75,1.25-.23-.33.52-1.2.75-1.25Z"/><path class="cls-31" d="m170.95,305.54c1.2-.26,1.7,1.68.5,2-1.42.38-1.1-1.87-.5-2Z"/><path class="cls-32" d="m174.95,195.55c.47,0,1.21,1.64.5,2-1.7.86-1.43-2.01-.5-2Z"/><path class="cls-5" d="m151.45,267.54c1.13-.61,1.78,1.07,1,1.5-1.13.61-1.78-1.07-1-1.5Z"/><path class="cls-49" d="m177.95,222.55c1.49-.01.61,2.26-.25,1.75-1.05-.63-.05-1.75.25-1.75Z"/><path class="cls-100" d="m182.7,198.55c.19-1.06.31-.72.5-1,1.76-.09,1.34,2.41-.5,1Z"/><path class="cls-78" d="m158.95,216.05c.97-.51,1.53,1.56.5,1.5-1.11-.06-.97-1.25-.5-1.5Z"/><path class="cls-84" d="m179.45,263.04c.25,0,1.22,1.18.5,1.5-1.66.73-1.35-1.47-.5-1.5Z"/><path class="cls-34" d="m150.45,218.55c.25,0,1.22,1.18.5,1.5-1.66.73-1.35-1.47-.5-1.5Z"/><path class="cls-32" d="m150.95,208.55c.97-.51,1.53,1.56.5,1.5-1.11-.06-.97-1.25-.5-1.5Z"/><path class="cls-100" d="m183.95,239.04c1.11.06.97,1.25.5,1.5-.97.51-1.53-1.56-.5-1.5Z"/><path class="cls-63" d="m183.45,305.04c.37-.27,1.61.04,1.25.75-.39.77-2.32.03-1.25-.75Z"/><path class="cls-85" d="m156.45,224.05c1.88-.27-.16,2.08-.75.75-.02-.05.7-.74.75-.75Z"/><path class="cls-5" d="m163.95,237.04c.06-.04.82.51.5,1-.77,1.2-1.14-.55-.5-1Z"/><path class="cls-5" d="m184.45,276.04c.75-.3,1.1.76.5,1-.75.3-1.1-.76-.5-1Z"/><path class="cls-5" d="m171.45,217.55l.25.25.25.25.25.25-.25.25h-.5l-.25-.25v-.5l.25-.25Z"/><path class="cls-95" d="m119.2,115.05c-.2.97.61,2.22-2,3.25.32.65,3.88-.02,4.75.25,2.72.85,11.44,29.35,11.75,33.5,0,.13-1.5,1.13.5,2-2.08,3.83-8.48-4.03-11.5-2.5-5.94-2.89-42.79-20.94-44.75-22.5-.25-.2-.37-.91-.75-1.5.53-.6,4.9-2.21,6.5-3,6.04-3,12.32-4.95,18.5-7.5,5.9,4.23,11.65-2.47,16.75-5,1.59,1.27.38,2.37.25,3Z"/><path class="cls-113" d="m144.7,103.05c9.55,4.14,19.12,7.94,28.5,12.5-3.49,3.55-8.39,1.42-9.25-3.5-9.91,1.82-6.36-3.43-15.5-5-3.12-.53-5.94.51-6.25.5-.31,0-.53-1.16-2.75-1.5-.95.2-2.59,1.93-2.75,2-5.66,2.34-11.04,5.88-17,7h-.5c.13-.63,1.34-1.73-.25-3-5.1,2.53-10.85,9.23-16.75,5,6.16-2.55,12.65-4.45,18.75-7,4.44-1.85,22.56-13.96,19-5.5,1.37-3.53,2.02-1.89,4.75-1.5Z"/><path class="cls-80" d="m173.2,115.55c4.64,2.26,8.84,5.38,13.5,7.5-7.55,3.54-15.28,6.78-22.75,10.5-6.89,3.44-13.17,8.99-21,10l-4.75,9.5c-.4.24-2.78,2.48-5.5,3.5-3-1.33-6.83-3.46-10-5,3.02-1.53,9.42,6.33,11.5,2.5.06-.11-.04-.32,0-.5,2.41-10.36-6.66-25.42-9.5-35.25l11.25-.25,6.25-10.5c.31,0,3.13-1.03,6.25-.5,9.14,1.57,5.59,6.82,15.5,5,.86,4.92,5.76,7.05,9.25,3.5Z"/><path class="cls-113" d="m190.7,125.05c-1.18,4.94-15.44,9.16-23.25,13-7.78,3.82-22.54,11.09-29.25,15l4.75-9.5c7.83-1.01,14.1-6.56,21-10,7.47-3.72,15.2-6.96,22.75-10.5,1.42.64,3.78,1.95,4,2Z"/><path class="cls-52" d="m142.2,107.55l-6.25,10.5-11.25.25c2.84,9.83,11.91,24.89,9.5,35.25l-.5-1.5c-.31-4.15-9.03-32.65-11.75-33.5-.87-.27-4.43.4-4.75-.25,2.61-1.03,1.8-2.28,2-3.25h.5c2.5,6.38,13.9-2.2,17-7,.16-.07,1.8-1.8,2.75-2,2.22.34,2.44,1.49,2.75,1.5Z"/><path class="cls-73" d="m134.2,153.55c-.04.18.06.39,0,.5-2-.87-.49-1.87-.5-2l.5,1.5Z"/><path class="cls-103" d="m136.7,108.05c-3.1,4.8-14.5,13.38-17,7,5.96-1.12,11.34-4.66,17-7Z"/><path class="cls-59" d="m80.2,172.55c4.33,3.03,31.52,16.52,40.25,21.5,4.35,2.48,10.3,7.49,14.25,8,.38.02,1,1.89,1,2,.03,1.11,1.22,2.21,0,2.5-18.15-12.12-37.56-22.16-57-32,.02-.16-.03-.34,0-.5.1-.56.66-1.8,1.5-1.5Z"/><path class="cls-59" d="m122.7,151.55c3.17,1.54,7,3.67,10,5,.1.05.03.57,2,1v44.5c-3.95-.51-9.9-5.52-14.25-8-8.73-4.98-35.92-18.47-40.25-21.5-.64-.45-3.37-2.37-3.5-2.75l-.5-41.5c.53-.72.96-.7,1-.75.38.59.5,1.3.75,1.5,1.96,1.56,38.81,19.61,44.75,22.5Z"/><path class="cls-81" d="m94.95,159.55c.14-.06,2.86-.05,3,0,2.54.88,1.26,8.88-4.75,2.75,3.21-.33.82-2.32,1.75-2.75Z"/><path class="cls-114" d="m121.45,184.55c3.08-1.08,4.44,3.16,2,4-2.97,1.02-4.33-3.18-2-4Z"/><path class="cls-53" d="m102.95,175.55c3.17-1.11,4.37,3.29,2,4-2.7.81-4.51-3.12-2-4Z"/><path class="cls-94" d="m335.09,160.05c-1.96,1.79-3.82,3.48-6,5-9.27,6.47-8.37,7.77-16.5,3.5-6.97-3.66-1.33-1.82,10.25-5,3.23-.89,9.02-4.21,12.25-3.5Z"/><path class="cls-36" d="m427.08,260.54c.18.07.65-.04,1,0-.26,5.48-.22,11.01-.5,16.5-1.51-3.09.93-8.13-2-6.75-1.43,16.36-2.72,32.8,0,48.75-.09,1.69-.4,3.39-.5,5-.08,1.32.08,2.68,0,4s.08,2.68,0,4c-4.23-.71-5.22-14.01-5.5-18.25-1.18-17.79,1.99-35.73,2-53.5l2-2.75c.49.53,2.99,2.8,3.5,3Z"/><path class="cls-96" d="m427.58,277.04c-.51,9.83-1,19.67-1.5,29.5-.18,3.5-.31,6.99-.5,10.5-.04.66.04,1.34,0,2-2.72-15.95-1.43-32.39,0-48.75,2.93-1.38.49,3.66,2,6.75Z"/><path class="cls-62" d="m396.08,184.05c11.99,6.18,24.2,11.96,36,18.5l-29.5,11c-9.06-12.44-12.43-13.41-26.75-19.5l-19.25-4q19.75-3,39.5-6Z"/><path class="cls-94" d="m248.59,183.55c5.11,3.32,10.47,5.64,15.5,9-23.06-2.46.09,4.43,9,5-7.23,1.14-14.33,1.8-21.5,3.5-2.51.6-5.05,1.18-7.5,2-2.07-.92-6.48.2-7.25,2.5-5.6-3.28-27.45-15.66-30.75-16.5,3.89-2.89,12.68-3.69,17.25-5,.42-.12.08-.88.5-1,.07-.02.36.68,1,.5,5.82-1.6,11.65-4.56,17.5-5.5,1.74,2.34,3.82,3.92,6.25,5.5Z"/><path class="cls-96" d="m431.58,208.55c-.4,9.13-1.51,18.32-2,27.5-.43,8.16-1.11,16.33-1.5,24.5-.35-.04-.82.07-1,0-2.76-6.31-4.29-16.3-6.5-22,2.61-5.39,9.25-28.37,10-29.75.22-.41.65-.25,1-.25Z"/><path class="cls-69" d="m431.58,205.55c-.51-2.97-2.65.98-3.5,3-2.68-.38-1.87.94-2,1-6.39,2.99-13.16,5.37-19.5,8.5-.17-.25-.66.09-4-4.5l29.5-11c.3,1.38-.52,2.12-.5,3Z"/><path class="cls-86" d="m431.58,205.55c.02.91.04,2.09,0,3-.35,0-.78-.16-1,.25-.75,1.38-7.39,24.36-10,29.75-.6-1.54-1.27-3.57-2-5,2.97-7.66,6.36-15.16,9.5-22.75.91-2.19-.04-2.15,0-2.25.85-2.02,2.99-5.97,3.5-3Z"/><path class="cls-94" d="m288.09,254.04c-1.42,3.42-3.29,6.72-4.5,10.25.42,9.61-1.45,19.32-2,29,0,20.85-.08,41.65.5,62.5,0,.09-1,1.41-1,1.5.18,5.5.98,6.64,1,7,.3,5.34-1.25,11.92,3,16-.05,2.39-.51,3.8,0,6.25.99,4.77,6.06,10.87,2,8-.89-1.84-3.42-6.9-2.5-3.25.05.2,1.82,2.77,2.5,3.25.43.9,1.83,3.87,2,4.5.15.56.82.92.5,1.25-5.54-4.51-11.71-9.15-17.5-13.75-.3-.24-.6-.67-1-1-5.4-4.39-11.1-8.36-16.5-12.75-1.81-10.02-1.46-20.15-2-30.25,11.58,14.61,21.65,30.96,31,47.25,3.63,2.04-7.81-16.39-8.5-17.5-3.97-6.37-21.63-30.32-22.5-32.75-.21-.57-.58-1.3-1-1.75-.26-17.76.13-35.49.5-53.25,12.63-12.13,26.92-24.11,38.5-36.25-1.14,1.77-1.7,3.83-2.5,5.75Z"/><path class="cls-94" d="m228.59,315.04c.39,9.39,2.06,28.86,3.5,38-3.4-1.55-6.37-5.59-10-6.5-.22-2.19-3.19-3.04-4.5-4-4.59-3.35-9.19-6.48-14-9.5l25-18Z"/><path class="cls-20" d="m222.09,346.54c3.63.91,6.6,4.94,10,6.5.04.28.81,1.15.5,3.5-3.91-3.47-8.49-6.81-13-9.5.1-.37-1.59-1.52,2.5-.5Z"/><path class="cls-46" d="m206.09,189.05c3.3.84,25.15,13.22,30.75,16.5.77-2.3,5.18-3.42,7.25-2.5-2.74.91-3.22.34-6,2.5-2.18,1.69-3.42,4.03-4.5,6.5-1.97,4.49-1.74,4.84-2.5,9.5-.72.09-.54-1.41-.5-3,.09-3.9,1.05-4.97.75-5.5-3.28-2.76-9.07-5.07-10.5-6-.36-.23-1.68-2.16-3-3-5.28-3.36-12.26-5.16-16.25-10.25-.79-1.01.06-3.2-2-1.75-.04-.08-.59-.24-1-1.5,1.21-1.5,5.81-1.93,7.5-1.5Z"/><path class="cls-94" d="m230.59,218.55c-2.59,9.64-.94,20.04-3.75,29.5-4.68.57-23.96-49.55-27.25-56,2.06-1.45,1.21.74,2,1.75,3.99,5.09,10.97,6.89,16.25,10.25,1.32.84,2.64,2.77,3,3,1.43.93,7.22,3.24,10.5,6,.3.53-.66,1.6-.75,5.5Z"/><path class="cls-94" d="m199.59,192.05c3.29,6.44,22.57,56.57,27.25,56,2.81-9.46,1.16-19.86,3.75-29.5-.04,1.59-.22,3.09.5,3-3.08,18.93-2.59,44.5-2.5,64,.04,8.97-.33,18.04,0,27l-25.5,19c-1.25-5.24-.34-19.74-.5-26.5-.65-27.62-.13-80.46-2-101.75-.29-3.33-1.71-6.92-2-10.25-.08-.88-1.16-1.06,0-2.5.41,1.26.96,1.42,1,1.5Z"/><path class="cls-13" d="m228.59,312.54c.03.83-.03,1.67,0,2.5l-25,18c-1.68-.67-.41-1.11-.5-1.5l25.5-19Z"/><path class="cls-106" d="m264.09,192.55c1.05.11,1.99.12,3,.5,8.11,3.87,20.36,2.24,6,4.5-8.91-.57-32.06-7.46-9-5Z"/><path class="cls-86" d="m426.08,209.55l-11,19c-1.08-1.55-5.27-6.39-7-7.5-.17-.67-1.12-2.44-1.5-3,6.34-3.13,13.11-5.51,19.5-8.5Z"/><path class="cls-83" d="m428.08,208.55c-.04.1.91.06,0,2.25-3.14,7.59-6.53,15.09-9.5,22.75-.43-.84-2.64-3.77-3.5-5l11-19c.13-.06-.68-1.38,2-1Z"/><path class="cls-56" d="m388.08,326.04c11.52,6.74,23.77,12.85,35,20,.17.11.97.74,1,1-5.73,3.45-12.03,5.66-18.25,8-.71.27-.72,1.4-1,1.5-.18.07-.08-.91-3.75.5-.78.3-1.51.57-1.75,1.5-1.47-2.38-14.42,3.92-19.75,6.5.15-14.51-.57-29.06,1-43.5,2.52,1.46,4.99,3.03,7.5,4.5Z"/><path class="cls-57" d="m292.59,246.54c-1.8,4.25-2.03,8.82-3,13.25,3.88,17.44,1.7,35.8,4.5,53.5,2.65-.21,1.99-13.77,2.5-18.5,1.6-14.92,2.83-21.09,2.5-37,0-.27,1.53-.3,0-4.75,7.05,9.08,13.29,18.77,20.5,27.75,10.18,12.68,21.64,24.41,32.5,36.5,1.19,1.67.81,2.17,1,3.75.1.81-.06,1.68,0,2.5-21.7,23.68-42.23,48.41-61,74.5-.02-.33-.78-.88-.5-2.5.14-1-.38-17.29-.5-20.25-.02-.42-1.49-1.88-1.5-2-.21-4.76,1.01-4.73,1-5-1.02-23.01-3.31-46.43-2.5-69.5.21-5.98,3.95-11.55-1-15.5.12-8.43,1.57-16.81,1.5-25.25,0-.67.65-2.01-.5-4,.8-1.92,1.36-3.98,2.5-5.75-11.58,12.14-25.87,24.12-38.5,36.25.02-.83-.59-2.29-.5-5.5l39-33,2-.5c-.04.36.07.83,0,1Z"/><path class="cls-9" d="m291.59,395.54c-.24,1.75-.24,4.2-2.5,3.5-.17-.63-1.57-3.6-2-4.5,4.06,2.87-1.01-3.23-2-8,1.45-2.24,1.76-3.28,1.5-6.25,4.9-2.19-1.6-9.38-1.5-15-2.44,6.92-.34-8.94-.5-12-1.67-2.65-.81-8.7.5-12-1.28-13.7-1.63-30.31-1-44,.02-.54.79.75,1.5-.5,0-12.89-.61-26.24,3-38.75.07,8.44-1.38,16.82-1.5,25.25,4.95,3.95,1.21,9.52,1,15.5-.81,23.07,1.48,46.49,2.5,69.5.01.27-1.21.24-1,5,0,.12,1.48,1.58,1.5,2,.12,2.95.64,19.25.5,20.25Z"/><path class="cls-28" d="m288.59,258.04c-3.61,12.51-3.01,25.86-3,38.75-.71,1.25-1.48-.04-1.5.5-.63,13.69-.28,30.3,1,44-1.31,3.3-2.17,9.35-.5,12,.16,3.06-1.94,18.92.5,12-.1,5.62,6.4,12.81,1.5,15,.26,2.97-.05,4.01-1.5,6.25-.51-2.45-.05-3.86,0-6.25-4.25-4.08-2.7-10.66-3-16-.02-.36-.82-1.5-1-7,0-.09,1-1.41,1-1.5-.58-20.85-.51-41.65-.5-62.5.55-9.68,2.42-19.39,2-29,1.21-3.53,3.08-6.83,4.5-10.25,1.15,1.99.49,3.33.5,4Z"/><path class="cls-20" d="m252.59,342.54c-.09-1.76-1.1-2.86,0-3,.87,2.42,18.53,26.38,22.5,32.75.69,1.11,12.13,19.54,8.5,17.5-9.35-16.29-19.42-32.64-31-47.25Z"/><path class="cls-9" d="m287.09,394.54c-.68-.48-2.45-3.05-2.5-3.25-.92-3.65,1.61,1.41,2.5,3.25Z"/><path class="cls-56" d="m348.59,378.04c-3.47,2.08-36.11,13.6-44.25,17-3.35,1.4-8.52,4.97-10.25,4,1.61-1.68,21.61-29.36,28-37.25,9.77-12.06,20.39-23.48,30.5-35.25.41,8.67,1.6,37.45.5,44.25-.41,2.51-2.34,5.96-4.5,7.25Z"/><path class="cls-69" d="m352.59,326.54c-10.11,11.77-20.73,23.19-30.5,35.25-6.39,7.89-26.39,35.57-28,37.25-3.24,3.39-1.91.29-2-1,18.77-26.08,39.29-50.82,61-74.5.05.67-.59,1.18-.5,3Z"/><path class="cls-124" d="m423.08,346.04c-11.23-7.15-23.48-13.26-35-20,.42-4.78,20.75,1.59,23.25,3,1.26.71,11.52,10.47,11.75,11.25.31,1.03-.22,4.08,0,5.75Z"/><path class="cls-57" d="m405.58,238.54c8.25,7.08,11.19,11.6,18,19l-2,2.75c0,17.77-3.18,35.71-2,53.5.28,4.24,1.27,17.54,5.5,18.25-.16,2.66-.42,14-1,15-.03-.26-.83-.89-1-1-.22-1.67.31-4.72,0-5.75-.23-.78-10.49-10.54-11.75-11.25-2.5-1.41-22.82-7.78-23.25-3-2.51-1.47-4.98-3.04-7.5-4.5-.31-19.15.41-38.35,0-57.5-.18-8.35-.47-16.66-1-25,3.71-.85,9.04-.47,12.25-1,7.44-1.24,7.11-5.05,13.75.5Z"/><path class="cls-86" d="m389.08,227.04c7.34,4.66,8.49,4.62,16.5,11.5-6.64-5.55-6.31-1.74-13.75-.5-3.21.53-8.54.15-12.25,1-.21-3.28-.23-6.74-.5-10,3.52-.32,6.82-.4,10-2Z"/><path class="cls-58" d="m379.58,221.55c1.88,1.15,4.83,2.54,9.5,5.5-3.18,1.6-6.48,1.68-10,2-.17-2.04-2.59-7.74.5-7.5Z"/><path class="cls-94" d="m310.59,203.05c8.98,3.73,23.54,11.22,30.5,17.5,1.12,1.01,3.73,3.5,4.5,4.5,1.18,1.52,2.84,4.24,3.5,6-16.88,5.39-35.51,11.2-52.75,15-1.14.25-2.37-1.07-2.75-1,.93-1.02.17-5.39-.25-6-1.06-1.54-27.8-17.09-31.25-20.5,4.72-2.63,24.36-9.53,30.5-11.5,5.75-1.85,12.19-2.34,18-4Z"/><path class="cls-94" d="m290.59,246.04l-39,33c.06-2.08.43-4,.5-6,.4-11.63.67-34.09,3-44.5,1.52.35.75-1.42,1.25-1.5,1.93-.31,29.18,17.74,34.25,19Z"/><path class="cls-46" d="m262.09,218.55c3.45,3.41,30.19,18.96,31.25,20.5.42.61,1.18,4.98.25,6-.5.09-.56.51-1,.5l-2,.5c-5.07-1.26-32.32-19.31-34.25-19-.5.08.27,1.85-1.25,1.5.6-2.69,2.06-4.96,3-7.5,1.7-1.54,2.34-1.58,4-2.5Z"/><path class="cls-86" d="m297.09,249.54c1.02,1.1,1.35,2.66,2,3.5,1.53,4.45,0,4.48,0,4.75.33,15.91-.9,22.08-2.5,37-.51,4.73.15,18.29-2.5,18.5-2.8-17.7-.62-36.06-4.5-53.5.97-4.43,1.2-9,3-13.25.91,1.05,2.1.41,4.5,3Z"/><path class="cls-69" d="m350.09,236.54c-11.37,2.67-41.18,12.43-50,13-.15,0-.13-1.1-3,0-2.4-2.59-3.59-1.95-4.5-3,.07-.17-.04-.64,0-1,.44.01.5-.41,1-.5.38-.07,1.61,1.25,2.75,1,17.24-3.8,35.87-9.61,52.75-15,.73,1.96.54,3.69,1,5.5Z"/><path class="cls-56" d="m300.09,249.54c-.71-.19-1.7.52-1.5,1.25.48,1.76,19.26,25.62,22,29,3.38,4.17,29.19,33.99,31,35.5.49.41.96.24,1.5.25.05,1.64,1.31,4.37,0,5.5-.19-1.58.19-2.08-1-3.75-10.86-12.09-22.32-23.82-32.5-36.5-7.21-8.98-13.45-18.67-20.5-27.75-.65-.84-.98-2.4-2-3.5,2.87-1.1,2.85,0,3,0Z"/><path class="cls-120" d="m350.09,236.54c.66,2.6,1.07,4.32,1.5,7,2.27,23.96.76,48.05,1.5,72-.54-.01-1.01.16-1.5-.25-1.81-1.51-27.62-31.33-31-35.5-2.74-3.38-21.52-27.24-22-29-.2-.73.79-1.44,1.5-1.25,8.82-.57,38.63-10.33,50-13Z"/><path class="cls-82" d="m252.09,273.04c-.07,2-.44,3.92-.5,6-.09,3.21.52,4.67.5,5.5-.37,17.76-.76,35.48-.5,53.25.42.45.79,1.18,1,1.75-1.1.14-.09,1.24,0,3,.54,10.1.19,20.23,2,30.25,5.4,4.39,11.1,8.36,16.5,12.75.94,2.89-.32.89-4.5-1-4.18-4.16-8.88-7.85-13.5-11.5-2.82-11.89-2.41-23.9-2.5-36-.12-16.35-.05-32.89,0-49.25.01-3.96.46-15.07,1.5-14.75Z"/><path class="cls-23" d="m388.08,224.55c1.41.76,6.88,4.98,7.75,5,2.14-1.2,2.92-2.36,5.5-1.5.69-2.95,3.76-4.26,6.5-4.5.59-.12.28-2.38.25-2.5,1.73,1.11,5.92,5.95,7,7.5.86,1.23,3.07,4.16,3.5,5,.73,1.43,1.4,3.46,2,5,2.21,5.7,3.74,15.69,6.5,22-.51-.2-3.01-2.47-3.5-3-6.81-7.4-9.75-11.92-18-19-8.01-6.88-9.16-6.84-16.5-11.5-4.67-2.96-7.62-4.35-9.5-5.5-.68-.42-2.39-1.54-3-2-.84-1.98,7.23,2.68,11.5,5Z"/><path class="cls-6" d="m249.09,265.04c-.05,2.23,1,2.13,1,2.25,0,.38-1,.13-1,.5-.03,6.07,1,5.7,1,6-.16,10.57-1.27,57.5-.5,62,.01.08.69,1.26,1,1.25.09,12.1-.32,24.11,2.5,36-5.76-4.55-11.79-8.86-17.5-13.5-1.03-.98-1.91-2.03-3-3,.31-2.35-.46-3.22-.5-3.5-1.44-9.14-3.11-28.61-3.5-38-.03-.83.03-1.67,0-2.5-.33-8.96.04-18.03,0-27q.25-16.87.5-33.75l20,13.25Z"/><path class="cls-26" d="m255.09,224.05v.5c-6.26,9.2-3.33,17.8-4,27.25-.03.39-.98.11-1,.5-.21,3.46.08,7.03,0,10.5,0,.12-1,2.13-1,2.25l-20-13.25q-.25,16.87-.5,33.75c-.09-19.5-.58-45.07,2.5-64,.76-4.66.53-5.01,2.5-9.5,3.34-.02,3.49,1.84,3.75,2,5.8,3.46,11.95,6.51,17.75,10Z"/><path class="cls-6" d="m360.58,188.55c-1.96.63-4.18.06-4,1.5l19.25,4c14.32,6.09,17.69,7.06,26.75,19.5,3.34,4.59,3.83,4.25,4,4.5.38.56,1.33,2.33,1.5,3,.03.12.34,2.38-.25,2.5-2.74.24-5.81,1.55-6.5,4.5-2.58-.86-3.36.3-5.5,1.5-.87-.02-6.34-4.23-7.75-5,3.52-.53,5.87-2.85,8.75-4.5.31-.18,1.24.69,5.75-2.75.2-1.13-5.35-10.03-6.75-11.25-.05-.05-.94,1.04-1,1-1.16-.85-1.53-2.76-4-3.5-4.52-1.35-19.8-.69-21-1-.53-.14.81-1.22,0-1.5-1.03-.36-26.84,2.01-9.75-.5,7.33.34,20.96-.51,5.25-.5-1.1-4.66,9.51-1.35,13.75-3.25-7.97-3.69-16.79-5.76-25.5-5.25.94-2.49-.84-1.57-2.5-1.5.55-1.5,6.61-2.65,9.5-1.5Z"/><path class="cls-97" d="m319.09,191.05c2.83.7,5.6,2.43,8.5,3,.48,1.26,17.87,8.22,20.5,9.5,1.83.89,3.65,2.07,5.5,3,.29,1.69-5.81-.07-7-.5-4.06-1.46-16.53-8.86-18.75-9-3.36.36-6.34,2.05-9.5,3-.66.2-.84-.7-1.5-.5-.25.07-.34,1.31-1,1.5-6.82,1.98-4.96,1.92-5.25,2-5.81,1.66-12.25,2.15-18,4,1.69-2.77-2.34.57-1.25-2.5,1.82-.21,6.4-1.31,7.75-2,4.27-2.18,9.92-9.09,10.5-9.5,1.78-1.25,3.99-1.76,5.75-3,2.21-.27,2.87.78,3.75,1Z"/><path class="cls-97" d="m309.59,193.05c-.58.41-6.23,7.32-10.5,9.5-1.1-1.44-13.51-4.31-13.75-2-13.13-2.56-17.82-1.75-31,1-.8.17-2.82.16-2.75-.5,7.17-1.7,14.27-2.36,21.5-3.5,14.36-2.26,2.11-.63-6-4.5,14.33,1.95,29.01,1.98,43-.75l-.5.75Z"/><path class="cls-26" d="m299.09,202.55c-1.35.69-5.93,1.79-7.75,2-1.09,3.07,2.94-.27,1.25,2.5-6.14,1.97-25.77,8.87-30.5,11.5-1.66.92-2.3.96-4,2.5-.75.68-2.47,2.72-3,3.5v-.5l4-5.75c-7.02-4.02-14.89-7.65-21-12.75,2.78-2.16,3.26-1.59,6-2.5,2.45-.82,4.99-1.4,7.5-2-.07.66,1.95.67,2.75.5,13.18-2.75,17.87-3.56,31-1,.24-2.31,12.65.56,13.75,2Z"/><path class="cls-109" d="m255.09,224.05c-5.8-3.49-11.95-6.54-17.75-10-.26-.16-.41-2.02-3.75-2,1.08-2.47,2.32-4.81,4.5-6.5,6.11,5.1,13.98,8.73,21,12.75l-4,5.75Z"/><path class="cls-35" d="m380.58,321.54c-1.57,14.44-.85,28.99-1,43.5-.26.12-1.9,2.39-4.25,3.5-3.16,1.5-23.88,10.85-25.25,11-1.56-1.16,3.71-3.97,4.5-8.25.88-4.76.56-85.82,0-96.75l26-10.5c.41,19.15-.31,38.35,0,57.5Z"/><path class="cls-64" d="m354.59,274.54c.56,10.93.88,91.99,0,96.75-.79,4.28-6.06,7.09-4.5,8.25-.72.08-.88,1.36-1.5-1.5,2.16-1.29,4.09-4.74,4.5-7.25,1.1-6.8-.09-35.58-.5-44.25-.09-1.82.55-2.33.5-3-.06-.82.1-1.69,0-2.5,1.31-1.13.05-3.86,0-5.5-.74-23.95.77-48.04-1.5-72,1.56,9.68,2.5,21.19,3,31Z"/><path class="cls-91" d="m255.09,228.54c-2.33,10.41-2.6,32.87-3,44.5-1.04-.33-1.49,10.79-1.5,14.75-.05,16.36-.12,32.9,0,49.25-.31,0-.99-1.17-1-1.25-.77-4.49.34-51.43.5-62,0-.3-1.03.07-1-6,0-.37,1-.12,1-.5,0-.12-1.05-.02-1-2.25,0-.12,1-2.13,1-2.25.08-3.47-.21-7.04,0-10.5.02-.39.97-.11,1-.5.67-9.45-2.26-18.05,4-27.25.53-.78,2.25-2.82,3-3.5-.94,2.54-2.4,4.81-3,7.5Z"/><path class="cls-97" d="m373.58,217.55c.1.05.81,1.1,2,1,.36.33.51.64,1,1,.61.46,2.32,1.58,3,2-3.09-.24-.67,5.46-.5,7.5.27,3.26.29,6.72.5,10,.53,8.34.82,16.65,1,25l-26,10.5c-.5-9.81-1.44-21.32-3-31-.43-2.68-.84-4.4-1.5-7-.46-1.81-.27-3.54-1-5.5-.66-1.76-2.32-4.48-3.5-6,8.35-2.66,16.76-4.81,24.5-9,.81.52,2.67,1.09,3.5,1.5Z"/><path class="cls-55" d="m360.09,200.55c-17.09,2.51,8.72.14,9.75.5.81.28-.53,1.36,0,1.5,1.2.31,16.48-.35,21,1,2.47.74,2.84,2.65,4,3.5.06.04.95-1.05,1-1,1.4,1.22,6.95,10.12,6.75,11.25-4.51,3.44-5.44,2.57-5.75,2.75-2.88,1.65-5.23,3.97-8.75,4.5-4.27-2.32-12.34-6.98-11.5-5-.49-.36-.64-.67-1-1-.11-.1-.77-2.42-2-1-.83-.41-2.69-.98-3.5-1.5-.24-.15-.7-1.03-4-3-4.06-2.42-8.28-4.38-12.5-6.5-1.85-.93-3.67-2.11-5.5-3-1.72-2.38.48-1.62,2.5-2.25-.01-.64-3.27.04-4.25-.25-10.35-3.09,12.38-.56,13.75-.5Z"/><path class="cls-27" d="m360.09,200.55c-1.37-.06-24.1-2.59-13.75.5.98.29,4.24-.39,4.25.25-2.02.63-4.22-.13-2.5,2.25-2.63-1.28-20.02-8.24-20.5-9.5,10.78,2.13,16.28-1.94,26-2.5,8.71-.51,17.53,1.56,25.5,5.25-4.23,1.9-14.85-1.41-13.75,3.25,15.71,0,2.08.84-5.25.5Z"/><path class="cls-4" d="m384.58,178.05c-.91,1.23-5.72-1.82-7.75-3h-2.25c.26-3.23,7.02-6.09,6.75-10.5-2.1,1.98-4.71,4.89-7,6.5-11.77,8.24-27.84,10.64-16.75,9.5.04.4-.18,1.39.25,1.5.52.13,13.28-.76,3.5.5-4.34.56-9.06-.59-11-.5-.2,0-.8.99-1,1-3.58.15-13.18,1.03-13.25.25,7.1-3.71,12.29-8.95,18-14.25,2.98-2.77,3.78-2.96,7-6.5,3.14-1.02,4.19-4.28,6-6.5,2.47-3.03,5.25-5.77,7.5-9,.36-.52,2.51-2.32,2.25-3-2.47-1.65-4.68-3.89-7.5-5-6.84-2.69-2.68-.04-2.75.25-.44,1.71-2.4-2.31-3.25-1.75-.81.45,7.08,10.29,6.25,10.5-1.53.64-3.8,2.33-5,3.5-.78-2.24-4.08-9.61-5.5-10.75-8.52-6.84-13.17,11.49-14.25,11.75-1.73.42-.69-1.82-3.75.5,6.08-9.06,11.92-24.24,31.25-13.5,15.79,8.77,17.69,22.25,3.75,34.25.06.64,7.3,3.65,8.5,4.25Z"/><path class="cls-51" d="m364.58,151.55c-.64.62-6.66,9.46-11,14-5.98,6.25-10.97,10.28-18.5,14.5,2.63-2.69-.48-3.09-.25-5-3.75,2.51-3.49-1.59-8.5-.5-2.51.55-2.11,2.2-3.25,3-6.06,4.24-.61-6.27,7-6.25-.23-4.5,4.52-7.19-1-6.25,2.18-1.52,4.04-3.21,6-5,.18-.16,3.04-1.57,4-2.75.99-1.21,1.21-3.08,2-4.25,3.06-2.32,2.02-.08,3.75-.5,1.08-.26,5.73-18.58,14.25-11.75,1.42,1.14,4.72,8.51,5.5,10.75Z"/><path class="cls-6" d="m360.58,188.55c-2.89-1.15-8.95,0-9.5,1.5-6.31.28-16.48,2.76-23.75,3l.25,1c-2.9-.57-5.67-2.3-8.5-3,1.8-1.91,8.25-1.98,11.25-2.5.4-.07.1-.94.5-1l14-.5c.39-.03.11-.98.5-1,6.58-.41,15.42.66,22.5-.5.78,2-4.37,1.22-7,2-.44.13-.2.98-.25,1Z"/><path class="cls-97" d="m374.58,147.05c-2.25,3.23-5.03,5.97-7.5,9-2.6,1.48-4.4,4.74-6,6.5-3.22,3.54-4.02,3.73-7,6.5-1.14-.82,2.87-1.51-.5-3.5,4.34-4.54,10.36-13.38,11-14,1.2-1.17,3.47-2.86,5-3.5,1.55-.65,3.06.01,5-1Z"/><path class="cls-55" d="m335.09,180.05c-3.83,2.15-6.66,3.82-11,5-3.8-2.62,1.3-5.4-1-7.5,1.14-.8.74-2.45,3.25-3,5.01-1.09,4.75,3.01,8.5.5-.23,1.91,2.88,2.31.25,5Z"/><path class="cls-6" d="m374.58,175.05c-5.37,2.77-11.03,4.89-17,5.5-11.09,1.14,4.98-1.26,16.75-9.5,2.29-1.61,4.9-4.52,7-6.5.27,4.41-6.49,7.27-6.75,10.5Z"/><path class="cls-23" d="m284.59,167.05c1.59.9,3.99,3.37,5.25,4,2.99,1.49,17.63,6.33,23.5,8.5.3.11.33-1.94,5.25,2.5.67.83,1.33,1.68,2,2.5.05.07-.03,1.49.75,1.5,1.19-.02,2.61-.96,2.75-1,4.34-1.18,7.17-2.85,11-5,7.53-4.22,12.52-8.25,18.5-14.5,3.37,1.99-.64,2.68.5,3.5-5.71,5.3-10.9,10.54-18,14.25.06.78,9.67-.1,13.25-.25.2,0,.8-.99,1-1,1.94-.09,6.66,1.06,11,.5,9.78-1.26-2.98-.37-3.5-.5-.43-.11-.21-1.1-.25-1.5,5.97-.61,11.63-2.73,17-5.5h2.25c2.03,1.18,6.84,4.23,7.75,3,3.87,1.95,7.66,4.02,11.5,6q-19.75,3-39.5,6c-.18-1.44,2.04-.87,4-1.5.05-.02-.19-.87.25-1,2.63-.78,7.78,0,7-2-7.08,1.16-15.91.09-22.5.5-.39.02-.11.97-.5,1l-14,.5c-.4.06-.1.93-.5,1-3,.52-9.45.59-11.25,2.5-.88-.22-1.54-1.27-3.75-1-1.76,1.24-3.97,1.75-5.75,3l.5-.75c-13.99,2.73-28.67,2.7-43,.75-1.01-.38-1.95-.39-3-.5-5.03-3.36-10.39-5.68-15.5-9-15.69-14.53-1.01-36.46,25.25-23.5,1.69.84,6.99,4.88,10.75,7Z"/><path class="cls-109" d="m256.34,157.05c2.82.64.95,9.17.75,11.25-8.42,4.53-12.01-.42-10.5-5.5.54-1.8,7.55-5.6,9.75-5.75Z"/><path class="cls-54" d="m257.34,170.05c3.4-.34,9.34.64,12,3-7.1-1.22-15.27-2.16-17,6.5-14.92-.5-1.12-8.89,5-9.5Z"/><path class="cls-6" d="m257.84,187.05c8.96,2.25,17.83,3.36,26.75,4.75.37,2.84-21.62.79-26.75-4.75Z"/><path class="cls-6" d="m246.34,179.05c3.05,1.58,9.23.52,10,3.5,8.02-.82-1.45,9.44-10-3.5Z"/><path class="cls-40" d="m257.84,179.55c1.42-.45,7.31.89,7.25,1.25-5.53,1.05-10.9-.1-7.25-1.25Z"/><path class="cls-23" d="m374.58,147.05c-1.94,1.01-3.45.35-5,1,.83-.21-7.06-10.05-6.25-10.5.85-.56,2.81,3.46,3.25,1.75.07-.29-4.09-2.94,2.75-.25,2.82,1.11,5.03,3.35,7.5,5,.26.68-1.89,2.48-2.25,3Z"/><path class="cls-129" d="m361.08,162.55c1.6-1.76,3.4-5.02,6-6.5-1.81,2.22-2.86,5.48-6,6.5Z"/><path class="cls-6" d="m323.09,177.55c2.3,2.1-2.8,4.88,1,7.5-.14.04-1.56.98-2.75,1-.78,0-.7-1.43-.75-1.5,4.34.07-7.36-13.32-8.5-11.25,2.66,2.48,4.27,5.98,6.5,8.75-4.92-4.44-4.95-2.39-5.25-2.5-5.87-2.17-20.51-7.01-23.5-8.5-1.26-.63-3.66-3.1-5.25-4,10.54-.71,17.61-2.56,28,1.5,8.13,4.27,7.23,2.97,16.5-3.5,5.52-.94.77,1.75,1,6.25-7.61-.02-13.06,10.49-7,6.25Z"/><path class="cls-129" d="m320.59,184.55c-.67-.82-1.33-1.67-2-2.5-2.23-2.76-3.84-6.27-6.5-8.75,1.14-2.07,12.84,11.32,8.5,11.25Z"/><path class="cls-130" d="m293.34,168.05c.62,0,3.77,3.56,10.75,6.25-.52,1.74-18.01-6.16-10.75-6.25Z"/><path class="cls-23" d="m353.59,191.55c-9.72.56-15.22,4.63-26,2.5l-.25-1c7.27-.24,17.44-2.72,23.75-3,1.66-.07,3.44-.99,2.5,1.5Z"/><path class="cls-26" d="m346.59,206.05c-7.13.5-14.06-.76-21.25-.5-.32.01-.5,1.69-6,0,3.23,2.18,6.92,3.49,10.25,5.5,2.96,1.79,6.31,3.83,9,6,3.3,2.66,5.09,4.1,2.5,3.5-6.96-6.28-21.52-13.77-30.5-17.5.29-.08-1.57-.02,5.25-2,.66-.19.75-1.43,1-1.5.66-.2.84.7,1.5.5,3.16-.95,6.14-2.64,9.5-3,2.22.14,14.69,7.54,18.75,9Z"/><path class="cls-6" d="m346.59,206.05c1.19.43,7.29,2.19,7,.5,4.22,2.12,8.44,4.08,12.5,6.5.38,1.72-3.6-.96-5.25,3-.71.11-.92.42-1.75.5l1.25-2.5c-2.19-1.05-4.01-.39-6.5-.5,8.91-1.64-2.84-.58-6.25-2.25,5.04-.44-9.19-1.25-14.75-1.25-.17,0-2.93.65-3.25,1-3.33-2.01-7.02-3.32-10.25-5.5,5.5,1.69,5.68.01,6,0,7.19-.26,14.12,1,21.25.5Z"/><path class="cls-130" d="m370.08,216.05c-7.74,4.19-16.15,6.34-24.5,9-.77-1-3.38-3.49-4.5-4.5,2.59.6.8-.84-2.5-3.5,2.1-2.44,14.17-1.54,19.75-1.5.38,0,.02,1.07.75,1,.83-.08,1.04-.39,1.75-.5,1.65-3.96,5.63-1.28,5.25-3,3.3,1.97,3.76,2.85,4,3Z"/><path class="cls-23" d="m375.58,218.55c-1.19.1-1.9-.95-2-1,1.23-1.42,1.89.9,2,1Z"/><path class="cls-68" d="m359.09,216.55c-.73.07-.37-1-.75-1-5.58-.04-17.65-.94-19.75,1.5-2.69-2.17-6.04-4.21-9-6,.32-.35,3.08-1,3.25-1,5.56,0,19.78.81,14.75,1.25,3.41,1.67,15.16.61,6.25,2.25,2.49.11,4.31-.55,6.5.5l-1.25,2.5Z"/></g></svg>