<?xml version="1.0" encoding="UTF-8"?><svg id="Layer_2" xmlns="http://www.w3.org/2000/svg" viewBox="0 0 807.69 580.11"><defs><style>.cls-1{fill:#3f2f35;}.cls-1,.cls-2,.cls-3,.cls-4,.cls-5,.cls-6,.cls-7{stroke-width:0px;}.cls-2{fill:#facf9c;}.cls-3{fill:#443339;}.cls-4{fill:#3a232c;}.cls-5{fill:#3a2a30;}.cls-6{fill:#44333a;}.cls-7{fill:#311b21;}</style></defs><g id="Layer_1-2"><g id="drogowskaz"><g id="slupek"><path class="cls-7" d="m401.33,579.65c-7.56-4.79-15.11-9.59-22.67-14.38.89-183.11,1.78-366.22,2.67-549.33,6.67,2.1,13.33,4.21,20,6.31v557.4Z"/><path class="cls-3" d="m428,570.6c-9.78,3.17-19.56,6.34-29.33,9.51V22.71c7.56-1.81,15.11-3.63,22.67-5.44,2.22,184.44,4.44,368.89,6.67,553.33Z"/><path class="cls-6" d="m400.51,0c-1.06,2.94-2.12,5.88-3.18,8.83,4.89-.96,9.78-1.93,14.67-2.89-3.83-1.98-7.66-3.96-11.49-5.94Z"/><path class="cls-5" d="m391.29,5.79c2.01,1.01,4.03,2.02,6.04,3.03,1.06-2.94,2.12-5.88,3.18-8.83-3.07,1.93-6.14,3.86-9.22,5.79Z"/><path class="cls-1" d="m421.33,17.27c-7.56,1.81-15.11,3.63-22.67,5.44-.44-4.63-.89-9.26-1.33-13.89,4.89-.96,9.78-1.93,14.67-2.89,3.11,3.78,6.22,7.56,9.33,11.33Z"/><path class="cls-4" d="m398.67,22.71c-5.78-2.26-11.56-4.52-17.33-6.77,3.32-3.38,6.64-6.76,9.96-10.14,2.01,1.01,4.03,2.02,6.04,3.03.44,4.63.89,9.26,1.33,13.89Z"/></g><g id="leftside"><path class="cls-4" d="m0,192.27c23.33,17,46.67,34,70,51,107.74-12.88,215.49-25.76,323.23-38.64v-106.11c-111.22,10.69-222.44,21.39-333.66,32.08-19.86,20.56-39.72,41.11-59.58,61.67Z"/><path class="cls-2" d="m2.67,193.6c22.44,17.18,44.89,34.36,67.33,51.54,107.74-12.88,215.49-25.76,323.23-38.64v-103.57c-110.74,10.67-221.49,21.33-332.23,32-19.44,19.56-38.89,39.11-58.33,58.67Z"/><polygon class="cls-7" points="386.41 194.01 382.34 195.97 381.33 200.38 384.15 203.91 388.67 203.91 391.48 200.38 390.48 195.97 386.41 194.01"/><polygon class="cls-7" points="386.41 107.27 382.34 109.23 381.33 113.63 384.15 117.16 388.67 117.16 391.48 113.63 390.48 109.23 386.41 107.27"/></g><g id="rightside"><path class="cls-4" d="m807.69,129.16c-31.85,19.85-63.7,39.7-95.56,59.56-103.26,5.17-206.52,10.33-309.78,15.5v-106.11l308.45-13.83c32.3,14.96,64.59,29.93,96.89,44.89Z"/><path class="cls-2" d="m804.03,132.22c-30.63,18.83-61.26,37.66-91.89,56.49-102.93,5.17-205.85,10.33-308.78,15.5v-101.77c101.63-4.42,203.26-8.84,304.89-13.26,31.92,14.35,63.85,28.7,95.77,43.05Z"/><polygon class="cls-7" points="410.89 190.02 406.82 191.98 405.82 196.39 408.63 199.92 413.15 199.92 415.96 196.39 414.96 191.98 410.89 190.02"/><polygon class="cls-7" points="409.33 106.63 405.26 108.59 404.26 112.99 407.08 116.52 411.59 116.52 414.41 112.99 413.4 108.59 409.33 106.63"/></g></g></g></svg>